<svg width="3" height="14" viewBox="0 0 3 14" fill="none" xmlns="http://www.w3.org/2000/svg">
<path d="M-5.22543e-07 7C-4.85825e-07 6.16 0.674999 5.5 1.5 5.5C2.325 5.5 3 6.175 3 7C3 7.825 2.325 8.5 1.5 8.5C0.674999 8.5 -5.5926e-07 7.84 -5.22543e-07 7ZM-7.411e-07 12C-7.04382e-07 11.16 0.674999 10.5 1.5 10.5C2.325 10.5 3 11.175 3 12C3 12.825 2.325 13.5 1.5 13.5C0.674999 13.5 -7.77817e-07 12.84 -7.411e-07 12ZM-3.03986e-07 2C-2.67268e-07 1.16 0.675 0.5 1.5 0.5C2.325 0.5 3 1.175 3 2C3 2.825 2.325 3.5 1.5 3.5C0.675 3.5 -3.40703e-07 2.84 -3.03986e-07 2Z" fill="#101010"/>
</svg>
