<svg width="189" height="36" viewBox="0 0 189 36" fill="none" xmlns="http://www.w3.org/2000/svg">
<path d="M6.692 10L6.118 8.124H2.786L2.226 10H0.294L3.318 0.535999H5.586L8.624 10H6.692ZM3.206 6.738H5.698L4.438 2.608L3.206 6.738ZM16.5216 10.21C15.439 10.21 14.5756 9.958 13.9316 9.454C13.297 8.95 12.9796 8.26867 12.9796 7.41V6.976H14.7436V7.326C14.7436 7.70867 14.9163 8.026 15.2616 8.278C15.607 8.53 16.0736 8.656 16.6616 8.656C17.1563 8.656 17.525 8.55333 17.7676 8.348C18.0196 8.13333 18.1456 7.86733 18.1456 7.55C18.1456 7.17667 17.9076 6.85933 17.4316 6.598C17.2263 6.486 16.7876 6.29 16.1156 6.01C15.145 5.62733 14.487 5.31 14.1416 5.058C13.451 4.554 13.1056 3.896 13.1056 3.084C13.1056 2.272 13.4043 1.628 14.0016 1.152C14.599 0.676 15.3876 0.438 16.3676 0.438C17.3943 0.438 18.2343 0.704 18.8876 1.236C19.541 1.75867 19.8676 2.44933 19.8676 3.308V3.658H18.1036V3.392C18.1036 3 17.9403 2.66867 17.6136 2.398C17.287 2.12733 16.8483 1.992 16.2976 1.992C15.8496 1.992 15.4996 2.08533 15.2476 2.272C14.9956 2.44933 14.8696 2.71067 14.8696 3.056C14.8696 3.41067 15.019 3.69067 15.3176 3.896C15.6256 4.10133 16.1903 4.34867 17.0116 4.638C17.3756 4.76867 17.6463 4.87133 17.8236 4.946C18.001 5.02067 18.2483 5.14667 18.5656 5.324C18.883 5.50133 19.121 5.67867 19.2796 5.856C19.4476 6.024 19.597 6.25267 19.7276 6.542C19.8676 6.83133 19.9376 7.14867 19.9376 7.494C19.9376 8.334 19.625 8.99667 18.9996 9.482C18.3836 9.96733 17.5576 10.21 16.5216 10.21ZM25.8173 3.042H27.6233V10H25.8173V9.454C25.416 9.874 24.898 10.084 24.2633 10.084C23.47 10.084 22.8726 9.87867 22.4713 9.468C22.07 9.05733 21.8693 8.488 21.8693 7.76V3.042H23.5913V7.76C23.5913 8.068 23.694 8.32 23.8993 8.516C24.114 8.70267 24.3846 8.796 24.7113 8.796C25.0473 8.796 25.3133 8.70267 25.5093 8.516C25.7146 8.32933 25.8173 8.07733 25.8173 7.76V3.042ZM33.4189 3.042H35.2249V9.468C35.2249 10.056 35.1269 10.5647 34.9309 10.994C34.7442 11.4233 34.4922 11.75 34.1749 11.974C33.8575 12.2073 33.4889 12.3893 33.0689 12.52C32.6582 12.66 32.2289 12.7253 31.7809 12.716C31.3329 12.7067 30.8849 12.6787 30.4369 12.632L30.5209 11.036C31.3702 11.204 32.0655 11.1667 32.6069 10.924C33.1482 10.6813 33.4189 10.2053 33.4189 9.496C33.0175 9.916 32.4995 10.126 31.8649 10.126C31.0715 10.126 30.4742 9.92067 30.0729 9.51C29.6715 9.09933 29.4709 8.53 29.4709 7.802V5.282C29.4709 4.56333 29.6715 3.99867 30.0729 3.588C30.4742 3.168 31.0669 2.958 31.8509 2.958C32.5042 2.958 33.0269 3.168 33.4189 3.588V3.042ZM32.3129 8.838C32.6489 8.838 32.9149 8.74467 33.1109 8.558C33.3162 8.37133 33.4189 8.11933 33.4189 7.802V5.282C33.4189 4.95533 33.3209 4.70333 33.1249 4.526C32.9289 4.33933 32.6582 4.246 32.3129 4.246C31.9862 4.246 31.7155 4.33933 31.5009 4.526C31.2955 4.70333 31.1929 4.95533 31.1929 5.282V7.802C31.1929 8.11 31.2955 8.362 31.5009 8.558C31.7155 8.74467 31.9862 8.838 32.3129 8.838ZM41.2255 3.042H43.0315V9.468C43.0315 10.056 42.9335 10.5647 42.7375 10.994C42.5508 11.4233 42.2988 11.75 41.9815 11.974C41.6642 12.2073 41.2955 12.3893 40.8755 12.52C40.4648 12.66 40.0355 12.7253 39.5875 12.716C39.1395 12.7067 38.6915 12.6787 38.2435 12.632L38.3275 11.036C39.1768 11.204 39.8722 11.1667 40.4135 10.924C40.9548 10.6813 41.2255 10.2053 41.2255 9.496C40.8242 9.916 40.3062 10.126 39.6715 10.126C38.8782 10.126 38.2808 9.92067 37.8795 9.51C37.4782 9.09933 37.2775 8.53 37.2775 7.802V5.282C37.2775 4.56333 37.4782 3.99867 37.8795 3.588C38.2808 3.168 38.8735 2.958 39.6575 2.958C40.3108 2.958 40.8335 3.168 41.2255 3.588V3.042ZM40.1195 8.838C40.4555 8.838 40.7215 8.74467 40.9175 8.558C41.1228 8.37133 41.2255 8.11933 41.2255 7.802V5.282C41.2255 4.95533 41.1275 4.70333 40.9315 4.526C40.7355 4.33933 40.4648 4.246 40.1195 4.246C39.7928 4.246 39.5222 4.33933 39.3075 4.526C39.1022 4.70333 38.9995 4.95533 38.9995 5.282V7.802C38.9995 8.11 39.1022 8.362 39.3075 8.558C39.5222 8.74467 39.7928 8.838 40.1195 8.838ZM51.1042 6.962H46.6942V7.368C46.6942 7.71333 46.8248 8.00733 47.0862 8.25C47.3568 8.48333 47.6788 8.6 48.0522 8.6C48.3882 8.6 48.6775 8.516 48.9202 8.348C49.1628 8.18 49.3168 7.96533 49.3822 7.704L50.9502 8.026C50.8475 8.62333 50.5302 9.118 49.9982 9.51C49.4662 9.902 48.8175 10.098 48.0522 10.098C47.2495 10.098 46.5542 9.86467 45.9662 9.398C45.3782 8.922 45.0842 8.26867 45.0842 7.438V5.604C45.0842 4.82933 45.3642 4.19 45.9242 3.686C46.4842 3.17267 47.1888 2.916 48.0382 2.916C48.8968 2.916 49.6202 3.17267 50.2082 3.686C50.8055 4.19 51.1042 4.82933 51.1042 5.604V6.962ZM48.0382 4.428C47.6742 4.428 47.3568 4.54467 47.0862 4.778C46.8248 5.01133 46.6942 5.31 46.6942 5.674V5.996L49.4242 5.982V5.674C49.4242 5.31 49.2888 5.01133 49.0182 4.778C48.7475 4.54467 48.4208 4.428 48.0382 4.428ZM57.7921 9.524C57.2694 9.888 56.5694 10.07 55.6921 10.07C54.8148 10.07 54.1101 9.86933 53.5781 9.468C53.0554 9.06667 52.7941 8.544 52.7941 7.9V7.76H54.4461V7.942C54.4461 8.17533 54.5628 8.36667 54.7961 8.516C55.0294 8.66533 55.3234 8.74 55.6781 8.74C56.0048 8.74 56.2661 8.67467 56.4621 8.544C56.6674 8.41333 56.7701 8.236 56.7701 8.012C56.7701 7.80667 56.6534 7.65267 56.4201 7.55C56.1868 7.44733 55.8368 7.34467 55.3701 7.242C54.9128 7.13933 54.5441 7.02267 54.2641 6.892C53.8068 6.71467 53.4474 6.49067 53.1861 6.22C52.9248 5.94933 52.7941 5.58533 52.7941 5.128C52.7941 4.46533 53.0508 3.94267 53.5641 3.56C54.0774 3.168 54.7541 2.972 55.5941 2.972C56.4528 2.972 57.1434 3.17267 57.6661 3.574C58.1888 3.97533 58.4501 4.50733 58.4501 5.17V5.31H56.7701V5.17C56.7701 4.92733 56.6628 4.736 56.4481 4.596C56.2428 4.44667 55.9674 4.372 55.6221 4.372C55.3048 4.372 55.0388 4.43733 54.8241 4.568C54.6188 4.69867 54.5161 4.87133 54.5161 5.086C54.5161 5.20733 54.5581 5.31467 54.6421 5.408C54.7261 5.492 54.8474 5.562 55.0061 5.618C55.1741 5.674 55.3421 5.72533 55.5101 5.772C55.6874 5.80933 55.9068 5.86067 56.1681 5.926C56.4294 5.982 56.6534 6.04267 56.8401 6.108C57.4001 6.29467 57.8294 6.53267 58.1281 6.822C58.4268 7.102 58.5761 7.48467 58.5761 7.97C58.5761 8.642 58.3148 9.16 57.7921 9.524ZM64.0933 4.526H62.5533V7.564C62.5533 8.18 62.8286 8.488 63.3793 8.488H63.9673V10C63.93 10 63.79 10.0047 63.5473 10.014C63.314 10.0327 63.1366 10.042 63.0153 10.042C62.2686 10.042 61.718 9.916 61.3633 9.664C61.0086 9.40267 60.8313 8.94067 60.8313 8.278V4.526H59.8233V3.182H60.8313V1.25H62.5533V3.182H64.0933V4.526ZM66.7022 2.244C66.4129 2.244 66.1656 2.14133 65.9602 1.936C65.7642 1.73067 65.6662 1.48333 65.6662 1.194C65.6662 0.914 65.7642 0.676 65.9602 0.48C66.1656 0.284 66.4129 0.186 66.7022 0.186C66.9822 0.186 67.2202 0.284 67.4162 0.48C67.6216 0.676 67.7242 0.914 67.7242 1.194C67.7242 1.48333 67.6216 1.73067 67.4162 1.936C67.2202 2.14133 66.9822 2.244 66.7022 2.244ZM65.7502 10V3.042H67.5562V10H65.7502ZM74.8179 9.412C74.2485 9.888 73.5345 10.126 72.6759 10.126C71.8172 10.126 71.1032 9.888 70.5339 9.412C69.9645 8.936 69.6799 8.348 69.6799 7.648V5.394C69.6799 4.71267 69.9692 4.13867 70.5479 3.672C71.1359 3.196 71.8452 2.958 72.6759 2.958C73.5159 2.958 74.2252 3.196 74.8039 3.672C75.3825 4.13867 75.6719 4.71267 75.6719 5.394V7.648C75.6719 8.348 75.3872 8.936 74.8179 9.412ZM72.6759 8.698C73.0865 8.698 73.3992 8.59067 73.6139 8.376C73.8285 8.152 73.9359 7.872 73.9359 7.536V5.506C73.9359 5.20733 73.8192 4.95067 73.5859 4.736C73.3619 4.512 73.0585 4.4 72.6759 4.4C72.3025 4.4 71.9945 4.512 71.7519 4.736C71.5185 4.96 71.4019 5.21667 71.4019 5.506V7.536C71.4019 7.86267 71.5139 8.138 71.7379 8.362C71.9619 8.586 72.2745 8.698 72.6759 8.698ZM80.8738 2.958C81.6672 2.958 82.2645 3.16333 82.6658 3.574C83.0672 3.98467 83.2678 4.554 83.2678 5.282V10H81.5458V5.282C81.5458 4.96467 81.4385 4.71267 81.2238 4.526C81.0185 4.33 80.7525 4.232 80.4258 4.232C80.0898 4.232 79.8192 4.33 79.6138 4.526C79.4178 4.71267 79.3198 4.96467 79.3198 5.282V10H77.5138V3.042H79.3198V3.588C79.7118 3.168 80.2298 2.958 80.8738 2.958ZM94.6127 2.09H90.2027V4.442H93.3807V5.982H90.2027V10H88.4107V0.535999H94.6127V2.09ZM100.986 9.412C100.416 9.888 99.7025 10.126 98.8438 10.126C97.9852 10.126 97.2712 9.888 96.7018 9.412C96.1325 8.936 95.8478 8.348 95.8478 7.648V5.394C95.8478 4.71267 96.1372 4.13867 96.7158 3.672C97.3038 3.196 98.0132 2.958 98.8438 2.958C99.6838 2.958 100.393 3.196 100.972 3.672C101.55 4.13867 101.84 4.71267 101.84 5.394V7.648C101.84 8.348 101.555 8.936 100.986 9.412ZM98.8438 8.698C99.2545 8.698 99.5672 8.59067 99.7818 8.376C99.9965 8.152 100.104 7.872 100.104 7.536V5.506C100.104 5.20733 99.9872 4.95067 99.7538 4.736C99.5298 4.512 99.2265 4.4 98.8438 4.4C98.4705 4.4 98.1625 4.512 97.9198 4.736C97.6865 4.96 97.5698 5.21667 97.5698 5.506V7.536C97.5698 7.86267 97.6818 8.138 97.9058 8.362C98.1298 8.586 98.4425 8.698 98.8438 8.698ZM107.499 3.056C107.826 3.056 108.11 3.13533 108.353 3.294L108.045 4.974C107.858 4.82467 107.55 4.78733 107.121 4.862C106.794 4.89 106.51 5.02533 106.267 5.268C106.034 5.51067 105.912 5.814 105.903 6.178V10H104.097V3.042H105.903V4.26C106.314 3.45733 106.846 3.056 107.499 3.056ZM115.041 9.958V6.318L112.157 0.535999H114.103L115.937 4.414L117.785 0.535999H119.731L116.833 6.318V9.958H115.041ZM125.376 9.412C124.807 9.888 124.093 10.126 123.234 10.126C122.376 10.126 121.662 9.888 121.092 9.412C120.523 8.936 120.238 8.348 120.238 7.648V5.394C120.238 4.71267 120.528 4.13867 121.106 3.672C121.694 3.196 122.404 2.958 123.234 2.958C124.074 2.958 124.784 3.196 125.362 3.672C125.941 4.13867 126.23 4.71267 126.23 5.394V7.648C126.23 8.348 125.946 8.936 125.376 9.412ZM123.234 8.698C123.645 8.698 123.958 8.59067 124.172 8.376C124.387 8.152 124.494 7.872 124.494 7.536V5.506C124.494 5.20733 124.378 4.95067 124.144 4.736C123.92 4.512 123.617 4.4 123.234 4.4C122.861 4.4 122.553 4.512 122.31 4.736C122.077 4.96 121.96 5.21667 121.96 5.506V7.536C121.96 7.86267 122.072 8.138 122.296 8.362C122.52 8.586 122.833 8.698 123.234 8.698ZM131.966 3.042H133.772V10H131.966V9.454C131.564 9.874 131.046 10.084 130.412 10.084C129.618 10.084 129.021 9.87867 128.62 9.468C128.218 9.05733 128.018 8.488 128.018 7.76V3.042H129.74V7.76C129.74 8.068 129.842 8.32 130.048 8.516C130.262 8.70267 130.533 8.796 130.86 8.796C131.196 8.796 131.462 8.70267 131.658 8.516C131.863 8.32933 131.966 8.07733 131.966 7.76V3.042Z" fill="#101010"/>
<path d="M5.664 33L5.124 31.26H2.184L1.656 33H0.252L2.832 24.984H4.476L7.056 33H5.664ZM2.484 30.264H4.812L3.648 26.484L2.484 30.264ZM12.0902 32.664C11.6502 32.936 11.1382 33.072 10.5542 33.072C9.97019 33.072 9.46219 32.928 9.03019 32.64C8.60619 32.344 8.30619 31.936 8.13019 31.416C8.01019 31.056 7.95019 30.6 7.95019 30.048C7.95019 29.576 8.01019 29.124 8.13019 28.692C8.29819 28.188 8.59819 27.792 9.03019 27.504C9.46219 27.216 9.97019 27.072 10.5542 27.072C11.1382 27.072 11.6502 27.22 12.0902 27.516C12.5302 27.804 12.8222 28.172 12.9662 28.62C12.9902 28.692 13.0102 28.764 13.0262 28.836C13.0422 28.908 13.0502 28.972 13.0502 29.028C13.0582 29.076 13.0622 29.104 13.0622 29.112L11.7782 29.304C11.7622 29.2 11.7422 29.104 11.7182 29.016C11.6622 28.776 11.5262 28.58 11.3102 28.428C11.0942 28.268 10.8382 28.188 10.5422 28.188C10.2462 28.188 9.99419 28.264 9.78619 28.416C9.58619 28.568 9.45419 28.776 9.39019 29.04C9.31019 29.248 9.27019 29.588 9.27019 30.06C9.27019 30.5 9.30619 30.84 9.37819 31.08C9.45019 31.352 9.58619 31.568 9.78619 31.728C9.99419 31.88 10.2462 31.956 10.5422 31.956C10.8382 31.956 11.0942 31.88 11.3102 31.728C11.5262 31.576 11.6622 31.372 11.7182 31.116L11.7542 30.9L13.0382 31.104C13.0382 31.224 13.0142 31.356 12.9662 31.5C12.8222 31.996 12.5302 32.384 12.0902 32.664ZM18.5003 32.664C18.0603 32.936 17.5483 33.072 16.9643 33.072C16.3803 33.072 15.8723 32.928 15.4403 32.64C15.0163 32.344 14.7163 31.936 14.5403 31.416C14.4203 31.056 14.3603 30.6 14.3603 30.048C14.3603 29.576 14.4203 29.124 14.5403 28.692C14.7083 28.188 15.0083 27.792 15.4403 27.504C15.8723 27.216 16.3803 27.072 16.9643 27.072C17.5483 27.072 18.0603 27.22 18.5003 27.516C18.9403 27.804 19.2323 28.172 19.3763 28.62C19.4003 28.692 19.4203 28.764 19.4363 28.836C19.4523 28.908 19.4603 28.972 19.4603 29.028C19.4683 29.076 19.4723 29.104 19.4723 29.112L18.1883 29.304C18.1723 29.2 18.1523 29.104 18.1283 29.016C18.0723 28.776 17.9363 28.58 17.7203 28.428C17.5043 28.268 17.2483 28.188 16.9523 28.188C16.6563 28.188 16.4043 28.264 16.1963 28.416C15.9963 28.568 15.8643 28.776 15.8003 29.04C15.7203 29.248 15.6803 29.588 15.6803 30.06C15.6803 30.5 15.7163 30.84 15.7883 31.08C15.8603 31.352 15.9963 31.568 16.1963 31.728C16.4043 31.88 16.6563 31.956 16.9523 31.956C17.2483 31.956 17.5043 31.88 17.7203 31.728C17.9363 31.576 18.0723 31.372 18.1283 31.116L18.1643 30.9L19.4483 31.104C19.4483 31.224 19.4243 31.356 19.3763 31.5C19.2323 31.996 18.9403 32.384 18.5003 32.664ZM25.1145 32.52C24.6585 32.904 24.0745 33.096 23.3625 33.096C22.6505 33.096 22.0625 32.904 21.5985 32.52C21.1345 32.128 20.9025 31.644 20.9025 31.068V29.076C20.9025 28.516 21.1385 28.04 21.6105 27.648C22.0905 27.256 22.6745 27.06 23.3625 27.06C24.0505 27.06 24.6305 27.256 25.1025 27.648C25.5745 28.032 25.8105 28.508 25.8105 29.076V31.068C25.8105 31.644 25.5785 32.128 25.1145 32.52ZM22.4625 31.764C22.6785 31.964 22.9785 32.064 23.3625 32.064C23.7465 32.064 24.0425 31.964 24.2505 31.764C24.4585 31.556 24.5625 31.296 24.5625 30.984V29.16C24.5625 28.872 24.4505 28.628 24.2265 28.428C24.0105 28.22 23.7225 28.116 23.3625 28.116C23.0105 28.116 22.7185 28.22 22.4865 28.428C22.2625 28.628 22.1505 28.872 22.1505 29.16V30.984C22.1505 31.296 22.2545 31.556 22.4625 31.764ZM30.4971 27.144C30.7931 27.144 31.0331 27.208 31.2171 27.336L30.9891 28.56C30.8211 28.44 30.5691 28.404 30.2331 28.452C29.9211 28.476 29.6531 28.604 29.4291 28.836C29.2131 29.06 29.1011 29.348 29.0931 29.7V33H27.7851V27.12H29.0931V28.236C29.4291 27.508 29.8971 27.144 30.4971 27.144ZM35.7037 24.984H37.0117V33H35.7037V32.388C35.3597 32.86 34.8597 33.096 34.2037 33.096C33.5477 33.096 33.0477 32.928 32.7037 32.592C32.3597 32.256 32.1877 31.792 32.1877 31.2V28.968C32.1877 28.376 32.3597 27.912 32.7037 27.576C33.0477 27.232 33.5437 27.06 34.1917 27.06C34.8557 27.06 35.3597 27.3 35.7037 27.78V24.984ZM35.5957 31.2V28.968C35.5957 28.664 35.4957 28.428 35.2957 28.26C35.1037 28.084 34.8437 27.996 34.5157 27.996C34.2037 27.996 33.9437 28.084 33.7357 28.26C33.5357 28.428 33.4357 28.664 33.4357 28.968V31.2C33.4357 31.496 33.5357 31.732 33.7357 31.908C33.9437 32.076 34.2077 32.16 34.5277 32.16C34.8477 32.16 35.1037 32.076 35.2957 31.908C35.4957 31.732 35.5957 31.496 35.5957 31.2ZM39.5701 26.352C39.3461 26.352 39.1541 26.276 38.9941 26.124C38.8421 25.964 38.7661 25.768 38.7661 25.536C38.7661 25.32 38.8421 25.136 38.9941 24.984C39.1541 24.824 39.3461 24.744 39.5701 24.744C39.7861 24.744 39.9741 24.824 40.1341 24.984C40.2941 25.136 40.3741 25.32 40.3741 25.536C40.3741 25.76 40.2941 25.952 40.1341 26.112C39.9741 26.272 39.7861 26.352 39.5701 26.352ZM38.8861 33V27.12H40.1941V33H38.8861ZM44.8955 27.06C45.5515 27.06 46.0515 27.232 46.3955 27.576C46.7395 27.912 46.9115 28.376 46.9115 28.968V33H45.6635V28.968C45.6635 28.672 45.5595 28.436 45.3515 28.26C45.1515 28.084 44.8915 27.996 44.5715 27.996C44.2515 27.996 43.9915 28.084 43.7915 28.26C43.5995 28.428 43.5035 28.664 43.5035 28.968V33H42.1955V27.12H43.5035V27.648C43.8475 27.256 44.3115 27.06 44.8955 27.06ZM52.0019 27.12H53.3099V32.664C53.3099 33.128 53.2339 33.532 53.0819 33.876C52.9379 34.228 52.7419 34.496 52.4939 34.68C52.2459 34.872 51.9579 35.024 51.6299 35.136C51.3019 35.256 50.9539 35.316 50.5859 35.316C50.2259 35.316 49.8579 35.3 49.4819 35.268L49.5299 34.116C50.2739 34.236 50.8699 34.18 51.3179 33.948C51.7739 33.724 52.0019 33.3 52.0019 32.676V32.52C51.6659 32.904 51.2019 33.096 50.6099 33.096C49.9539 33.096 49.4539 32.928 49.1099 32.592C48.7659 32.256 48.5939 31.792 48.5939 31.2V28.968C48.5939 28.376 48.7659 27.912 49.1099 27.576C49.4539 27.232 49.9499 27.06 50.5979 27.06C51.1819 27.06 51.6499 27.256 52.0019 27.648V27.12ZM50.1419 31.908C50.3499 32.076 50.6139 32.16 50.9339 32.16C51.2539 32.16 51.5099 32.076 51.7019 31.908C51.9019 31.732 52.0019 31.496 52.0019 31.2V28.968C52.0019 28.664 51.9019 28.428 51.7019 28.26C51.5099 28.084 51.2499 27.996 50.9219 27.996C50.6099 27.996 50.3499 28.084 50.1419 28.26C49.9419 28.428 49.8419 28.664 49.8419 28.968V31.2C49.8419 31.496 49.9419 31.732 50.1419 31.908ZM63.3218 24.984V26.1H61.0898V33H59.7818V26.1H57.3578V24.984H63.3218ZM68.0403 32.52C67.5843 32.904 67.0003 33.096 66.2883 33.096C65.5763 33.096 64.9883 32.904 64.5243 32.52C64.0603 32.128 63.8283 31.644 63.8283 31.068V29.076C63.8283 28.516 64.0643 28.04 64.5363 27.648C65.0163 27.256 65.6003 27.06 66.2883 27.06C66.9763 27.06 67.5563 27.256 68.0283 27.648C68.5003 28.032 68.7363 28.508 68.7363 29.076V31.068C68.7363 31.644 68.5043 32.128 68.0403 32.52ZM65.3883 31.764C65.6043 31.964 65.9043 32.064 66.2883 32.064C66.6723 32.064 66.9683 31.964 67.1763 31.764C67.3843 31.556 67.4883 31.296 67.4883 30.984V29.16C67.4883 28.872 67.3763 28.628 67.1523 28.428C66.9363 28.22 66.6483 28.116 66.2883 28.116C65.9363 28.116 65.6443 28.22 65.4123 28.428C65.1883 28.628 65.0763 28.872 65.0763 29.16V30.984C65.0763 31.296 65.1803 31.556 65.3883 31.764ZM75.2036 32.964V29.76L72.7676 24.984H74.1716L75.8636 28.392L77.5556 24.984H78.9716L76.5116 29.76V32.964H75.2036ZM83.6731 32.52C83.2171 32.904 82.6331 33.096 81.9211 33.096C81.2091 33.096 80.6211 32.904 80.1571 32.52C79.6931 32.128 79.4611 31.644 79.4611 31.068V29.076C79.4611 28.516 79.6971 28.04 80.1691 27.648C80.6491 27.256 81.2331 27.06 81.9211 27.06C82.6091 27.06 83.1891 27.256 83.6611 27.648C84.1331 28.032 84.3691 28.508 84.3691 29.076V31.068C84.3691 31.644 84.1371 32.128 83.6731 32.52ZM81.0211 31.764C81.2371 31.964 81.5371 32.064 81.9211 32.064C82.3051 32.064 82.6011 31.964 82.8091 31.764C83.0171 31.556 83.1211 31.296 83.1211 30.984V29.16C83.1211 28.872 83.0091 28.628 82.7851 28.428C82.5691 28.22 82.2811 28.116 81.9211 28.116C81.5691 28.116 81.2771 28.22 81.0451 28.428C80.8211 28.628 80.7091 28.872 80.7091 29.16V30.984C80.7091 31.296 80.8131 31.556 81.0211 31.764ZM89.3964 27.12H90.7044V33H89.3964V32.484C89.0604 32.868 88.5964 33.06 88.0044 33.06C87.3484 33.06 86.8484 32.892 86.5044 32.556C86.1604 32.22 85.9884 31.756 85.9884 31.164V27.12H87.2364V31.164C87.2364 31.46 87.3364 31.696 87.5364 31.872C87.7444 32.04 88.0084 32.124 88.3284 32.124C88.6484 32.124 88.9044 32.04 89.0964 31.872C89.2964 31.696 89.3964 31.46 89.3964 31.164V27.12ZM95.2549 27.144C95.5509 27.144 95.7909 27.208 95.9749 27.336L95.7469 28.56C95.5789 28.44 95.3269 28.404 94.9909 28.452C94.6789 28.476 94.4109 28.604 94.1869 28.836C93.9709 29.06 93.8589 29.348 93.8509 29.7V33H92.5429V27.12H93.8509V28.236C94.1869 27.508 94.6549 27.144 95.2549 27.144ZM99.9575 33V24.984H101.265V31.872H105.297V33H99.9575ZM108.756 27.084C109.476 27.084 110.06 27.264 110.508 27.624C110.956 27.976 111.18 28.44 111.18 29.016V33H109.872V32.088C109.616 32.76 109.04 33.096 108.144 33.096C107.568 33.096 107.1 32.96 106.74 32.688C106.388 32.416 106.212 32.012 106.212 31.476C106.212 30.924 106.416 30.492 106.824 30.18C107.232 29.868 107.812 29.712 108.564 29.712H109.872V29.232C109.872 28.912 109.772 28.664 109.572 28.488C109.38 28.304 109.108 28.212 108.756 28.212C108.452 28.212 108.2 28.276 108 28.404C107.808 28.532 107.7 28.7 107.676 28.908L106.368 28.752C106.4 28.272 106.636 27.876 107.076 27.564C107.524 27.244 108.084 27.084 108.756 27.084ZM108.516 32.172C108.892 32.172 109.212 32.08 109.476 31.896C109.74 31.712 109.872 31.448 109.872 31.104V30.396H108.84C108.424 30.396 108.1 30.476 107.868 30.636C107.636 30.796 107.52 31.024 107.52 31.32C107.52 31.584 107.608 31.792 107.784 31.944C107.96 32.096 108.204 32.172 108.516 32.172ZM115.093 33.048C114.389 33.048 113.817 32.884 113.377 32.556C112.945 32.228 112.729 31.8 112.729 31.272V31.14H113.941V31.308C113.941 31.532 114.049 31.716 114.265 31.86C114.481 32.004 114.753 32.076 115.081 32.076C115.393 32.076 115.645 32.012 115.837 31.884C116.037 31.748 116.137 31.572 116.137 31.356C116.137 31.164 116.045 31.02 115.861 30.924C115.677 30.82 115.385 30.72 114.985 30.624C114.585 30.52 114.281 30.424 114.073 30.336C113.649 30.176 113.321 29.984 113.089 29.76C112.857 29.536 112.741 29.228 112.741 28.836C112.741 28.3 112.949 27.876 113.365 27.564C113.789 27.244 114.345 27.084 115.033 27.084C115.729 27.084 116.289 27.248 116.713 27.576C117.145 27.896 117.361 28.324 117.361 28.86V28.98H116.137V28.86C116.137 28.636 116.033 28.452 115.825 28.308C115.625 28.164 115.365 28.092 115.045 28.092C114.733 28.092 114.477 28.16 114.277 28.296C114.085 28.424 113.989 28.596 113.989 28.812C113.989 28.924 114.021 29.02 114.085 29.1C114.157 29.18 114.261 29.248 114.397 29.304C114.533 29.36 114.669 29.408 114.805 29.448C114.949 29.488 115.129 29.536 115.345 29.592C115.569 29.648 115.757 29.7 115.909 29.748C116.397 29.908 116.773 30.108 117.037 30.348C117.309 30.58 117.445 30.904 117.445 31.32C117.445 31.864 117.233 32.288 116.809 32.592C116.385 32.896 115.813 33.048 115.093 33.048ZM122.034 28.224H120.678V31.044C120.678 31.612 120.946 31.896 121.482 31.896H121.95V33C121.614 33.016 121.374 33.024 121.23 33.024C120.614 33.024 120.162 32.92 119.874 32.712C119.586 32.496 119.438 32.112 119.43 31.56V28.224H118.578V27.252H119.43V25.644H120.678V27.252H122.034V28.224ZM129.064 33.168C128.208 33.168 127.504 32.924 126.952 32.436C126.4 31.94 126.124 31.348 126.124 30.66V27.444C126.124 26.756 126.4 26.164 126.952 25.668C127.504 25.172 128.208 24.924 129.064 24.924C129.936 24.924 130.644 25.172 131.188 25.668C131.732 26.164 132.004 26.756 132.004 27.444V30.66C132.004 31.348 131.732 31.94 131.188 32.436C130.644 32.924 129.936 33.168 129.064 33.168ZM129.064 32.052C129.544 32.052 129.924 31.912 130.204 31.632C130.492 31.352 130.636 31.048 130.636 30.72V27.312C130.636 26.992 130.496 26.7 130.216 26.436C129.936 26.172 129.552 26.04 129.064 26.04C128.592 26.04 128.208 26.172 127.912 26.436C127.624 26.7 127.48 26.992 127.48 27.312V30.72C127.48 31.04 127.624 31.344 127.912 31.632C128.208 31.912 128.592 32.052 129.064 32.052ZM136.232 27.06C136.888 27.06 137.388 27.232 137.732 27.576C138.076 27.912 138.248 28.376 138.248 28.968V31.188C138.248 31.78 138.076 32.248 137.732 32.592C137.388 32.928 136.892 33.096 136.244 33.096C135.66 33.096 135.192 32.9 134.84 32.508V33H133.532V24.984H134.84V27.648C135.184 27.256 135.648 27.06 136.232 27.06ZM137 31.188V28.968C137 28.672 136.896 28.436 136.688 28.26C136.488 28.084 136.228 27.996 135.908 27.996C135.588 27.996 135.328 28.084 135.128 28.26C134.936 28.428 134.84 28.664 134.84 28.968V31.188C134.84 31.5 134.936 31.74 135.128 31.908C135.328 32.076 135.592 32.16 135.92 32.16C136.24 32.16 136.5 32.076 136.7 31.908C136.9 31.74 137 31.5 137 31.188ZM142.234 33.048C141.53 33.048 140.958 32.884 140.518 32.556C140.086 32.228 139.87 31.8 139.87 31.272V31.14H141.082V31.308C141.082 31.532 141.19 31.716 141.406 31.86C141.622 32.004 141.894 32.076 142.222 32.076C142.534 32.076 142.786 32.012 142.978 31.884C143.178 31.748 143.278 31.572 143.278 31.356C143.278 31.164 143.186 31.02 143.002 30.924C142.818 30.82 142.526 30.72 142.126 30.624C141.726 30.52 141.422 30.424 141.214 30.336C140.79 30.176 140.462 29.984 140.23 29.76C139.998 29.536 139.882 29.228 139.882 28.836C139.882 28.3 140.09 27.876 140.506 27.564C140.93 27.244 141.486 27.084 142.174 27.084C142.87 27.084 143.43 27.248 143.854 27.576C144.286 27.896 144.502 28.324 144.502 28.86V28.98H143.278V28.86C143.278 28.636 143.174 28.452 142.966 28.308C142.766 28.164 142.506 28.092 142.186 28.092C141.874 28.092 141.618 28.16 141.418 28.296C141.226 28.424 141.13 28.596 141.13 28.812C141.13 28.924 141.162 29.02 141.226 29.1C141.298 29.18 141.402 29.248 141.538 29.304C141.674 29.36 141.81 29.408 141.946 29.448C142.09 29.488 142.27 29.536 142.486 29.592C142.71 29.648 142.898 29.7 143.05 29.748C143.538 29.908 143.914 30.108 144.178 30.348C144.45 30.58 144.586 30.904 144.586 31.32C144.586 31.864 144.374 32.288 143.95 32.592C143.526 32.896 142.954 33.048 142.234 33.048ZM151.085 30.6L147.317 30.612V30.84C147.317 31.176 147.441 31.452 147.689 31.668C147.937 31.884 148.237 31.992 148.589 31.992C148.893 31.992 149.161 31.916 149.393 31.764C149.625 31.604 149.769 31.404 149.825 31.164L150.965 31.392C150.877 31.872 150.613 32.272 150.173 32.592C149.733 32.912 149.205 33.072 148.589 33.072C147.925 33.072 147.353 32.88 146.873 32.496C146.393 32.112 146.153 31.576 146.153 30.888V29.244C146.153 28.604 146.385 28.076 146.849 27.66C147.313 27.244 147.885 27.036 148.565 27.036C149.269 27.036 149.865 27.244 150.353 27.66C150.841 28.076 151.085 28.604 151.085 29.244V30.6ZM148.565 28.14C148.229 28.14 147.937 28.248 147.689 28.464C147.441 28.68 147.317 28.956 147.317 29.292V29.676L149.861 29.664V29.292C149.861 28.948 149.733 28.672 149.477 28.464C149.229 28.248 148.925 28.14 148.565 28.14ZM155.712 27.144C156.008 27.144 156.248 27.208 156.432 27.336L156.204 28.56C156.036 28.44 155.784 28.404 155.448 28.452C155.136 28.476 154.868 28.604 154.644 28.836C154.428 29.06 154.316 29.348 154.308 29.7V33H153V27.12H154.308V28.236C154.644 27.508 155.112 27.144 155.712 27.144ZM158.829 33L156.933 27.12H158.337L159.537 31.524L160.749 27.12H162.153L160.257 33H158.829ZM165.592 27.084C166.312 27.084 166.896 27.264 167.344 27.624C167.792 27.976 168.016 28.44 168.016 29.016V33H166.708V32.088C166.452 32.76 165.876 33.096 164.98 33.096C164.404 33.096 163.936 32.96 163.576 32.688C163.224 32.416 163.048 32.012 163.048 31.476C163.048 30.924 163.252 30.492 163.66 30.18C164.068 29.868 164.648 29.712 165.4 29.712H166.708V29.232C166.708 28.912 166.608 28.664 166.408 28.488C166.216 28.304 165.944 28.212 165.592 28.212C165.288 28.212 165.036 28.276 164.836 28.404C164.644 28.532 164.536 28.7 164.512 28.908L163.204 28.752C163.236 28.272 163.472 27.876 163.912 27.564C164.36 27.244 164.92 27.084 165.592 27.084ZM165.352 32.172C165.728 32.172 166.048 32.08 166.312 31.896C166.576 31.712 166.708 31.448 166.708 31.104V30.396H165.676C165.26 30.396 164.936 30.476 164.704 30.636C164.472 30.796 164.356 31.024 164.356 31.32C164.356 31.584 164.444 31.792 164.62 31.944C164.796 32.096 165.04 32.172 165.352 32.172ZM172.648 28.224H171.292V31.044C171.292 31.612 171.56 31.896 172.096 31.896H172.564V33C172.228 33.016 171.988 33.024 171.844 33.024C171.228 33.024 170.776 32.92 170.488 32.712C170.2 32.496 170.052 32.112 170.044 31.56V28.224H169.192V27.252H170.044V25.644H171.292V27.252H172.648V28.224ZM174.828 26.352C174.604 26.352 174.412 26.276 174.252 26.124C174.1 25.964 174.024 25.768 174.024 25.536C174.024 25.32 174.1 25.136 174.252 24.984C174.412 24.824 174.604 24.744 174.828 24.744C175.044 24.744 175.232 24.824 175.392 24.984C175.552 25.136 175.632 25.32 175.632 25.536C175.632 25.76 175.552 25.952 175.392 26.112C175.232 26.272 175.044 26.352 174.828 26.352ZM174.144 33V27.12H175.452V33H174.144ZM181.548 32.52C181.092 32.904 180.508 33.096 179.796 33.096C179.084 33.096 178.496 32.904 178.032 32.52C177.568 32.128 177.336 31.644 177.336 31.068V29.076C177.336 28.516 177.572 28.04 178.044 27.648C178.524 27.256 179.108 27.06 179.796 27.06C180.484 27.06 181.064 27.256 181.536 27.648C182.008 28.032 182.244 28.508 182.244 29.076V31.068C182.244 31.644 182.012 32.128 181.548 32.52ZM178.896 31.764C179.112 31.964 179.412 32.064 179.796 32.064C180.18 32.064 180.476 31.964 180.684 31.764C180.892 31.556 180.996 31.296 180.996 30.984V29.16C180.996 28.872 180.884 28.628 180.66 28.428C180.444 28.22 180.156 28.116 179.796 28.116C179.444 28.116 179.152 28.22 178.92 28.428C178.696 28.628 178.584 28.872 178.584 29.16V30.984C178.584 31.296 178.688 31.556 178.896 31.764ZM186.622 27.06C187.278 27.06 187.778 27.232 188.122 27.576C188.466 27.912 188.638 28.376 188.638 28.968V33H187.39V28.968C187.39 28.672 187.286 28.436 187.078 28.26C186.878 28.084 186.618 27.996 186.298 27.996C185.978 27.996 185.718 28.084 185.518 28.26C185.326 28.428 185.23 28.664 185.23 28.968V33H183.922V27.12H185.23V27.648C185.574 27.256 186.038 27.06 186.622 27.06Z" fill="#ADAFAE"/>
</svg>
