<svg width="124" height="36" viewBox="0 0 124 36" fill="none" xmlns="http://www.w3.org/2000/svg">
<path d="M4.452 10.21C3.40667 10.21 2.548 9.91133 1.876 9.314C1.21333 8.71667 0.882 7.998 0.882 7.158V3.532C0.882 2.692 1.21333 1.96867 1.876 1.362C2.548 0.755333 3.40667 0.451999 4.452 0.451999C5.516 0.451999 6.37467 0.755333 7.028 1.362C7.69067 1.95933 8.022 2.68267 8.022 3.532V3.714L6.174 3.812L6.16 3.35C6.15067 3.014 5.99667 2.706 5.698 2.426C5.39933 2.13667 4.984 1.992 4.452 1.992C3.93867 1.992 3.52333 2.13667 3.206 2.426C2.898 2.71533 2.744 3.02333 2.744 3.35V7.242C2.744 7.578 2.898 7.9 3.206 8.208C3.52333 8.516 3.93867 8.67 4.452 8.67C4.99333 8.67 5.40867 8.53933 5.698 8.278C5.99667 8.01667 6.15533 7.718 6.174 7.382L6.202 6.934L8.022 6.99V7.158C8.022 8.026 7.70933 8.754 7.084 9.342C6.468 9.92067 5.59067 10.21 4.452 10.21ZM12.9021 2.972C13.7794 2.972 14.4981 3.19133 15.0581 3.63C15.6181 4.05933 15.8981 4.60533 15.8981 5.268V10H14.0921V8.964C13.8028 9.72933 13.1448 10.112 12.1181 10.112C11.4274 10.112 10.8721 9.94867 10.4521 9.622C10.0321 9.29533 9.82209 8.81467 9.82209 8.18C9.82209 7.51733 10.0601 7.004 10.5361 6.64C11.0214 6.26667 11.7121 6.08 12.6081 6.08H14.0921V5.576C14.0921 5.24933 13.9894 4.99267 13.7841 4.806C13.5788 4.61933 13.2894 4.526 12.9161 4.526C12.5988 4.526 12.3328 4.596 12.1181 4.736C11.9128 4.86667 11.8008 5.044 11.7821 5.268L9.97609 5.03C10.0041 4.442 10.2888 3.952 10.8301 3.56C11.3808 3.168 12.0714 2.972 12.9021 2.972ZM12.6501 8.852C13.0514 8.852 13.3921 8.754 13.6721 8.558C13.9521 8.35267 14.0921 8.068 14.0921 7.704V7.004H13.0001C12.5614 7.004 12.2208 7.088 11.9781 7.256C11.7448 7.424 11.6281 7.662 11.6281 7.97C11.6281 8.23133 11.7168 8.446 11.8941 8.614C12.0714 8.77267 12.3234 8.852 12.6501 8.852ZM21.4644 4.526H19.9244V7.564C19.9244 8.18 20.1997 8.488 20.7504 8.488H21.3384V10C21.3011 10 21.1611 10.0047 20.9184 10.014C20.6851 10.0327 20.5077 10.042 20.3864 10.042C19.6397 10.042 19.0891 9.916 18.7344 9.664C18.3797 9.40267 18.2024 8.94067 18.2024 8.278V4.526H17.1944V3.182H18.2024V1.25H19.9244V3.182H21.4644V4.526ZM28.8053 6.962H24.3953V7.368C24.3953 7.71333 24.526 8.00733 24.7873 8.25C25.058 8.48333 25.38 8.6 25.7533 8.6C26.0893 8.6 26.3787 8.516 26.6213 8.348C26.864 8.18 27.018 7.96533 27.0833 7.704L28.6513 8.026C28.5487 8.62333 28.2313 9.118 27.6993 9.51C27.1673 9.902 26.5187 10.098 25.7533 10.098C24.9507 10.098 24.2553 9.86467 23.6673 9.398C23.0793 8.922 22.7853 8.26867 22.7853 7.438V5.604C22.7853 4.82933 23.0653 4.19 23.6253 3.686C24.1853 3.17267 24.89 2.916 25.7393 2.916C26.598 2.916 27.3213 3.17267 27.9093 3.686C28.5067 4.19 28.8053 4.82933 28.8053 5.604V6.962ZM25.7393 4.428C25.3753 4.428 25.058 4.54467 24.7873 4.778C24.526 5.01133 24.3953 5.31 24.3953 5.674V5.996L27.1253 5.982V5.674C27.1253 5.31 26.99 5.01133 26.7193 4.778C26.4487 4.54467 26.122 4.428 25.7393 4.428ZM34.4853 3.042H36.2913V9.468C36.2913 10.056 36.1933 10.5647 35.9973 10.994C35.8106 11.4233 35.5586 11.75 35.2413 11.974C34.9239 12.2073 34.5553 12.3893 34.1353 12.52C33.7246 12.66 33.2953 12.7253 32.8473 12.716C32.3993 12.7067 31.9513 12.6787 31.5033 12.632L31.5873 11.036C32.4366 11.204 33.1319 11.1667 33.6733 10.924C34.2146 10.6813 34.4853 10.2053 34.4853 9.496C34.0839 9.916 33.5659 10.126 32.9313 10.126C32.1379 10.126 31.5406 9.92067 31.1393 9.51C30.7379 9.09933 30.5373 8.53 30.5373 7.802V5.282C30.5373 4.56333 30.7379 3.99867 31.1393 3.588C31.5406 3.168 32.1333 2.958 32.9173 2.958C33.5706 2.958 34.0933 3.168 34.4853 3.588V3.042ZM33.3793 8.838C33.7153 8.838 33.9813 8.74467 34.1773 8.558C34.3826 8.37133 34.4853 8.11933 34.4853 7.802V5.282C34.4853 4.95533 34.3873 4.70333 34.1913 4.526C33.9953 4.33933 33.7246 4.246 33.3793 4.246C33.0526 4.246 32.7819 4.33933 32.5673 4.526C32.3619 4.70333 32.2593 4.95533 32.2593 5.282V7.802C32.2593 8.11 32.3619 8.362 32.5673 8.558C32.7819 8.74467 33.0526 8.838 33.3793 8.838ZM43.4819 9.412C42.9126 9.888 42.1986 10.126 41.3399 10.126C40.4813 10.126 39.7673 9.888 39.1979 9.412C38.6286 8.936 38.3439 8.348 38.3439 7.648V5.394C38.3439 4.71267 38.6333 4.13867 39.2119 3.672C39.7999 3.196 40.5093 2.958 41.3399 2.958C42.1799 2.958 42.8893 3.196 43.4679 3.672C44.0466 4.13867 44.3359 4.71267 44.3359 5.394V7.648C44.3359 8.348 44.0513 8.936 43.4819 9.412ZM41.3399 8.698C41.7506 8.698 42.0633 8.59067 42.2779 8.376C42.4926 8.152 42.5999 7.872 42.5999 7.536V5.506C42.5999 5.20733 42.4833 4.95067 42.2499 4.736C42.0259 4.512 41.7226 4.4 41.3399 4.4C40.9666 4.4 40.6586 4.512 40.4159 4.736C40.1826 4.96 40.0659 5.21667 40.0659 5.506V7.536C40.0659 7.86267 40.1779 8.138 40.4019 8.362C40.6259 8.586 40.9386 8.698 41.3399 8.698ZM49.995 3.056C50.3217 3.056 50.6063 3.13533 50.849 3.294L50.541 4.974C50.3543 4.82467 50.0463 4.78733 49.617 4.862C49.2903 4.89 49.0057 5.02533 48.763 5.268C48.5297 5.51067 48.4083 5.814 48.399 6.178V10H46.593V3.042H48.399V4.26C48.8097 3.45733 49.3417 3.056 49.995 3.056ZM51.8061 12.842V11.344H51.9461C52.5155 11.3347 52.9215 11.2507 53.1641 11.092C53.4068 10.9427 53.5841 10.6253 53.6961 10.14L51.4281 3.154H53.3321L54.6201 7.928L55.9081 3.154H57.7841L55.3761 10.42C55.2455 10.812 55.1195 11.1247 54.9981 11.358C54.8861 11.6007 54.7461 11.8247 54.5781 12.03C54.4101 12.2447 54.2095 12.4033 53.9761 12.506C53.7521 12.618 53.4768 12.702 53.1501 12.758C52.8235 12.814 52.4315 12.842 51.9741 12.842H51.8061ZM66.2861 0.535999C67.1727 0.535999 67.8867 0.801999 68.4281 1.334C68.9694 1.85667 69.2401 2.55667 69.2401 3.434C69.2401 4.28333 68.9601 4.96933 68.4001 5.492C67.8401 6.00533 67.1074 6.262 66.2021 6.262H64.1441V10H62.3521V0.535999H66.2861ZM66.0061 4.82C66.4354 4.82 66.7807 4.694 67.0421 4.442C67.3127 4.19 67.4481 3.86333 67.4481 3.462C67.4481 3.05133 67.3127 2.72 67.0421 2.468C66.7807 2.20667 66.4354 2.076 66.0061 2.076H64.1441V4.82H66.0061ZM72.2788 8.46H73.2728V10H70.4868V0.535999H72.2788V8.46ZM77.488 2.972C78.3654 2.972 79.084 3.19133 79.644 3.63C80.204 4.05933 80.484 4.60533 80.484 5.268V10H78.678V8.964C78.3887 9.72933 77.7307 10.112 76.704 10.112C76.0134 10.112 75.458 9.94867 75.038 9.622C74.618 9.29533 74.408 8.81467 74.408 8.18C74.408 7.51733 74.646 7.004 75.122 6.64C75.6074 6.26667 76.298 6.08 77.194 6.08H78.678V5.576C78.678 5.24933 78.5754 4.99267 78.37 4.806C78.1647 4.61933 77.8754 4.526 77.502 4.526C77.1847 4.526 76.9187 4.596 76.704 4.736C76.4987 4.86667 76.3867 5.044 76.368 5.268L74.562 5.03C74.59 4.442 74.8747 3.952 75.416 3.56C75.9667 3.168 76.6574 2.972 77.488 2.972ZM77.236 8.852C77.6374 8.852 77.978 8.754 78.258 8.558C78.538 8.35267 78.678 8.068 78.678 7.704V7.004H77.586C77.1474 7.004 76.8067 7.088 76.564 7.256C76.3307 7.424 76.214 7.662 76.214 7.97C76.214 8.23133 76.3027 8.446 76.48 8.614C76.6574 8.77267 76.9094 8.852 77.236 8.852ZM85.3097 10.098C84.6003 10.098 83.9843 9.92067 83.4617 9.566C82.939 9.21133 82.5703 8.72133 82.3557 8.096C82.197 7.648 82.1177 7.116 82.1177 6.5C82.1177 5.89333 82.197 5.366 82.3557 4.918C82.561 4.31133 82.925 3.83533 83.4477 3.49C83.9797 3.13533 84.6003 2.958 85.3097 2.958C86.019 2.958 86.6443 3.14 87.1857 3.504C87.727 3.85867 88.0817 4.30667 88.2497 4.848C88.287 4.94133 88.315 5.03467 88.3337 5.128C88.3523 5.212 88.3617 5.28667 88.3617 5.352C88.371 5.408 88.3757 5.44067 88.3757 5.45L86.6117 5.73C86.593 5.59933 86.5697 5.478 86.5417 5.366C86.4763 5.114 86.327 4.90867 86.0937 4.75C85.8697 4.59133 85.6037 4.512 85.2957 4.512C84.661 4.512 84.255 4.80133 84.0777 5.38C83.9843 5.66 83.9377 6.038 83.9377 6.514C83.9377 6.99933 83.9843 7.37733 84.0777 7.648C84.255 8.24533 84.661 8.544 85.2957 8.544C85.6037 8.544 85.8697 8.46933 86.0937 8.32C86.3177 8.16133 86.467 7.93733 86.5417 7.648C86.5603 7.57333 86.5697 7.48933 86.5697 7.396L88.3477 7.69C88.3477 7.83933 88.315 8.00267 88.2497 8.18C88.063 8.78667 87.699 9.258 87.1577 9.594C86.6257 9.93 86.0097 10.098 85.3097 10.098ZM95.9753 6.962H91.5653V7.368C91.5653 7.71333 91.6959 8.00733 91.9573 8.25C92.2279 8.48333 92.5499 8.6 92.9233 8.6C93.2593 8.6 93.5486 8.516 93.7913 8.348C94.0339 8.18 94.1879 7.96533 94.2533 7.704L95.8213 8.026C95.7186 8.62333 95.4013 9.118 94.8693 9.51C94.3373 9.902 93.6886 10.098 92.9233 10.098C92.1206 10.098 91.4253 9.86467 90.8373 9.398C90.2493 8.922 89.9552 8.26867 89.9552 7.438V5.604C89.9552 4.82933 90.2353 4.19 90.7953 3.686C91.3553 3.17267 92.0599 2.916 92.9093 2.916C93.7679 2.916 94.4913 3.17267 95.0793 3.686C95.6766 4.19 95.9753 4.82933 95.9753 5.604V6.962ZM92.9093 4.428C92.5453 4.428 92.2279 4.54467 91.9573 4.778C91.6959 5.01133 91.5653 5.31 91.5653 5.674V5.996L94.2953 5.982V5.674C94.2953 5.31 94.1599 5.01133 93.8893 4.778C93.6186 4.54467 93.2919 4.428 92.9093 4.428Z" fill="#101010"/>
<path d="M6.228 24.984V26.1H3.996V33H2.688V26.1H0.264V24.984H6.228ZM7.11619 35.424V34.332H7.23619C7.70819 34.324 8.04419 34.244 8.24419 34.092C8.45219 33.94 8.62019 33.624 8.74819 33.144L6.80419 27.264H8.18419L9.42019 31.536L10.6442 27.264H12.0122L9.92419 33.456C9.78819 33.856 9.65619 34.168 9.52819 34.392C9.40819 34.624 9.24819 34.824 9.04819 34.992C8.84819 35.16 8.60819 35.272 8.32819 35.328C8.05619 35.392 7.70019 35.424 7.26019 35.424H7.11619ZM15.8684 27.06C16.5244 27.06 17.0244 27.232 17.3684 27.576C17.7124 27.912 17.8844 28.376 17.8844 28.968V31.188C17.8844 31.78 17.7124 32.248 17.3684 32.592C17.0244 32.928 16.5284 33.096 15.8804 33.096C15.2884 33.096 14.8204 32.904 14.4764 32.52V35.436H13.1684V27.06H14.4764V27.648C14.8204 27.256 15.2844 27.06 15.8684 27.06ZM16.6244 31.188V28.968C16.6244 28.664 16.5244 28.428 16.3244 28.26C16.1244 28.084 15.8644 27.996 15.5444 27.996C15.2564 27.996 15.0124 28.068 14.8124 28.212C14.6204 28.356 14.5084 28.552 14.4764 28.8V31.368C14.5084 31.624 14.6204 31.82 14.8124 31.956C15.0044 32.092 15.2484 32.16 15.5444 32.16C15.8644 32.16 16.1244 32.076 16.3244 31.908C16.5244 31.74 16.6244 31.5 16.6244 31.188ZM24.44 30.6L20.672 30.612V30.84C20.672 31.176 20.796 31.452 21.044 31.668C21.292 31.884 21.592 31.992 21.944 31.992C22.248 31.992 22.516 31.916 22.748 31.764C22.98 31.604 23.124 31.404 23.18 31.164L24.32 31.392C24.232 31.872 23.968 32.272 23.528 32.592C23.088 32.912 22.56 33.072 21.944 33.072C21.28 33.072 20.708 32.88 20.228 32.496C19.748 32.112 19.508 31.576 19.508 30.888V29.244C19.508 28.604 19.74 28.076 20.204 27.66C20.668 27.244 21.24 27.036 21.92 27.036C22.624 27.036 23.22 27.244 23.708 27.66C24.196 28.076 24.44 28.604 24.44 29.244V30.6ZM21.92 28.14C21.584 28.14 21.292 28.248 21.044 28.464C20.796 28.68 20.672 28.956 20.672 29.292V29.676L23.216 29.664V29.292C23.216 28.948 23.088 28.672 22.832 28.464C22.584 28.248 22.28 28.14 21.92 28.14ZM25.6268 34.068L25.9388 31.26H27.1028L26.4908 34.068H25.6268ZM31.3208 33V24.984H32.6288V31.872H36.6608V33H31.3208ZM41.9075 32.52C41.4515 32.904 40.8675 33.096 40.1555 33.096C39.4435 33.096 38.8555 32.904 38.3915 32.52C37.9275 32.128 37.6955 31.644 37.6955 31.068V29.076C37.6955 28.516 37.9315 28.04 38.4035 27.648C38.8835 27.256 39.4675 27.06 40.1555 27.06C40.8435 27.06 41.4235 27.256 41.8955 27.648C42.3675 28.032 42.6035 28.508 42.6035 29.076V31.068C42.6035 31.644 42.3715 32.128 41.9075 32.52ZM39.2555 31.764C39.4715 31.964 39.7715 32.064 40.1555 32.064C40.5395 32.064 40.8355 31.964 41.0435 31.764C41.2515 31.556 41.3555 31.296 41.3555 30.984V29.16C41.3555 28.872 41.2435 28.628 41.0195 28.428C40.8035 28.22 40.5155 28.116 40.1555 28.116C39.8035 28.116 39.5115 28.22 39.2795 28.428C39.0555 28.628 38.9435 28.872 38.9435 29.16V30.984C38.9435 31.296 39.0475 31.556 39.2555 31.764ZM48.2308 32.664C47.7908 32.936 47.2788 33.072 46.6948 33.072C46.1108 33.072 45.6028 32.928 45.1708 32.64C44.7468 32.344 44.4468 31.936 44.2708 31.416C44.1508 31.056 44.0908 30.6 44.0908 30.048C44.0908 29.576 44.1508 29.124 44.2708 28.692C44.4388 28.188 44.7388 27.792 45.1708 27.504C45.6028 27.216 46.1108 27.072 46.6948 27.072C47.2788 27.072 47.7908 27.22 48.2308 27.516C48.6708 27.804 48.9628 28.172 49.1068 28.62C49.1308 28.692 49.1508 28.764 49.1668 28.836C49.1828 28.908 49.1908 28.972 49.1908 29.028C49.1988 29.076 49.2028 29.104 49.2028 29.112L47.9188 29.304C47.9028 29.2 47.8828 29.104 47.8588 29.016C47.8028 28.776 47.6668 28.58 47.4508 28.428C47.2348 28.268 46.9788 28.188 46.6828 28.188C46.3868 28.188 46.1348 28.264 45.9268 28.416C45.7268 28.568 45.5948 28.776 45.5308 29.04C45.4508 29.248 45.4108 29.588 45.4108 30.06C45.4108 30.5 45.4468 30.84 45.5188 31.08C45.5908 31.352 45.7268 31.568 45.9268 31.728C46.1348 31.88 46.3868 31.956 46.6828 31.956C46.9788 31.956 47.2348 31.88 47.4508 31.728C47.6668 31.576 47.8028 31.372 47.8588 31.116L47.8948 30.9L49.1788 31.104C49.1788 31.224 49.1548 31.356 49.1068 31.5C48.9628 31.996 48.6708 32.384 48.2308 32.664ZM53.057 27.084C53.777 27.084 54.361 27.264 54.809 27.624C55.257 27.976 55.481 28.44 55.481 29.016V33H54.173V32.088C53.917 32.76 53.341 33.096 52.445 33.096C51.869 33.096 51.401 32.96 51.041 32.688C50.689 32.416 50.513 32.012 50.513 31.476C50.513 30.924 50.717 30.492 51.125 30.18C51.533 29.868 52.113 29.712 52.865 29.712H54.173V29.232C54.173 28.912 54.073 28.664 53.873 28.488C53.681 28.304 53.409 28.212 53.057 28.212C52.753 28.212 52.501 28.276 52.301 28.404C52.109 28.532 52.001 28.7 51.977 28.908L50.669 28.752C50.701 28.272 50.937 27.876 51.377 27.564C51.825 27.244 52.385 27.084 53.057 27.084ZM52.817 32.172C53.193 32.172 53.513 32.08 53.777 31.896C54.041 31.712 54.173 31.448 54.173 31.104V30.396H53.141C52.725 30.396 52.401 30.476 52.169 30.636C51.937 30.796 51.821 31.024 51.821 31.32C51.821 31.584 51.909 31.792 52.085 31.944C52.261 32.096 52.505 32.172 52.817 32.172ZM60.1126 28.224H58.7566V31.044C58.7566 31.612 59.0246 31.896 59.5606 31.896H60.0286V33C59.6926 33.016 59.4526 33.024 59.3086 33.024C58.6926 33.024 58.2406 32.92 57.9526 32.712C57.6646 32.496 57.5166 32.112 57.5086 31.56V28.224H56.6566V27.252H57.5086V25.644H58.7566V27.252H60.1126V28.224ZM62.2928 26.352C62.0688 26.352 61.8768 26.276 61.7168 26.124C61.5648 25.964 61.4888 25.768 61.4888 25.536C61.4888 25.32 61.5648 25.136 61.7168 24.984C61.8768 24.824 62.0688 24.744 62.2928 24.744C62.5088 24.744 62.6968 24.824 62.8568 24.984C63.0168 25.136 63.0968 25.32 63.0968 25.536C63.0968 25.76 63.0168 25.952 62.8568 26.112C62.6968 26.272 62.5088 26.352 62.2928 26.352ZM61.6088 33V27.12H62.9168V33H61.6088ZM69.0129 32.52C68.5569 32.904 67.9729 33.096 67.2609 33.096C66.5489 33.096 65.9609 32.904 65.4969 32.52C65.0329 32.128 64.8009 31.644 64.8009 31.068V29.076C64.8009 28.516 65.0369 28.04 65.5089 27.648C65.9889 27.256 66.5729 27.06 67.2609 27.06C67.9489 27.06 68.5289 27.256 69.0009 27.648C69.4729 28.032 69.7089 28.508 69.7089 29.076V31.068C69.7089 31.644 69.4769 32.128 69.0129 32.52ZM66.3609 31.764C66.5769 31.964 66.8769 32.064 67.2609 32.064C67.6449 32.064 67.9409 31.964 68.1489 31.764C68.3569 31.556 68.4609 31.296 68.4609 30.984V29.16C68.4609 28.872 68.3489 28.628 68.1249 28.428C67.9089 28.22 67.6209 28.116 67.2609 28.116C66.9089 28.116 66.6169 28.22 66.3849 28.428C66.1609 28.628 66.0489 28.872 66.0489 29.16V30.984C66.0489 31.296 66.1529 31.556 66.3609 31.764ZM74.0869 27.06C74.7429 27.06 75.2429 27.232 75.5869 27.576C75.9309 27.912 76.1029 28.376 76.1029 28.968V33H74.8549V28.968C74.8549 28.672 74.7509 28.436 74.5429 28.26C74.3429 28.084 74.0829 27.996 73.7629 27.996C73.4429 27.996 73.1829 28.084 72.9829 28.26C72.7909 28.428 72.6949 28.664 72.6949 28.968V33H71.3869V27.12H72.6949V27.648C73.0389 27.256 73.5029 27.06 74.0869 27.06ZM83.6187 33.168C82.7627 33.168 82.0587 32.924 81.5067 32.436C80.9547 31.94 80.6787 31.348 80.6787 30.66V27.444C80.6787 26.756 80.9547 26.164 81.5067 25.668C82.0587 25.172 82.7627 24.924 83.6187 24.924C84.4907 24.924 85.1987 25.172 85.7427 25.668C86.2867 26.164 86.5587 26.756 86.5587 27.444V30.66C86.5587 31.348 86.2867 31.94 85.7427 32.436C85.1987 32.924 84.4907 33.168 83.6187 33.168ZM83.6187 32.052C84.0987 32.052 84.4787 31.912 84.7587 31.632C85.0467 31.352 85.1907 31.048 85.1907 30.72V27.312C85.1907 26.992 85.0507 26.7 84.7707 26.436C84.4907 26.172 84.1067 26.04 83.6187 26.04C83.1467 26.04 82.7627 26.172 82.4667 26.436C82.1787 26.7 82.0347 26.992 82.0347 27.312V30.72C82.0347 31.04 82.1787 31.344 82.4667 31.632C82.7627 31.912 83.1467 32.052 83.6187 32.052ZM90.6516 25.872C90.3396 25.88 90.1236 25.96 90.0036 26.112C89.8836 26.264 89.8236 26.496 89.8236 26.808V27.888H91.1556V28.86H89.8236V33H88.5276V28.86H87.6756V27.888H88.5276V26.7C88.5276 26.076 88.6876 25.628 89.0076 25.356C89.3276 25.084 89.8756 24.96 90.6516 24.984H91.1556V25.872H90.6516ZM98.534 24.984C99.262 24.984 99.846 25.204 100.286 25.644C100.726 26.076 100.946 26.652 100.946 27.372C100.946 28.076 100.718 28.644 100.262 29.076C99.814 29.5 99.218 29.712 98.474 29.712H96.578V33H95.27V24.984H98.534ZM98.342 28.656C98.734 28.656 99.05 28.54 99.29 28.308C99.53 28.076 99.65 27.772 99.65 27.396C99.65 27.004 99.53 26.692 99.29 26.46C99.05 26.22 98.734 26.1 98.342 26.1H96.578V28.656H98.342ZM103.375 31.872H104.251V33H102.067V24.984H103.375V31.872ZM107.784 27.084C108.504 27.084 109.088 27.264 109.536 27.624C109.984 27.976 110.208 28.44 110.208 29.016V33H108.9V32.088C108.644 32.76 108.068 33.096 107.172 33.096C106.596 33.096 106.128 32.96 105.768 32.688C105.416 32.416 105.24 32.012 105.24 31.476C105.24 30.924 105.444 30.492 105.852 30.18C106.26 29.868 106.84 29.712 107.592 29.712H108.9V29.232C108.9 28.912 108.8 28.664 108.6 28.488C108.408 28.304 108.136 28.212 107.784 28.212C107.48 28.212 107.228 28.276 107.028 28.404C106.836 28.532 106.728 28.7 106.704 28.908L105.396 28.752C105.428 28.272 105.664 27.876 106.104 27.564C106.552 27.244 107.112 27.084 107.784 27.084ZM107.544 32.172C107.92 32.172 108.24 32.08 108.504 31.896C108.768 31.712 108.9 31.448 108.9 31.104V30.396H107.868C107.452 30.396 107.128 30.476 106.896 30.636C106.664 30.796 106.548 31.024 106.548 31.32C106.548 31.584 106.636 31.792 106.812 31.944C106.988 32.096 107.232 32.172 107.544 32.172ZM115.825 32.664C115.385 32.936 114.873 33.072 114.289 33.072C113.705 33.072 113.197 32.928 112.765 32.64C112.341 32.344 112.041 31.936 111.865 31.416C111.745 31.056 111.685 30.6 111.685 30.048C111.685 29.576 111.745 29.124 111.865 28.692C112.033 28.188 112.333 27.792 112.765 27.504C113.197 27.216 113.705 27.072 114.289 27.072C114.873 27.072 115.385 27.22 115.825 27.516C116.265 27.804 116.557 28.172 116.701 28.62C116.725 28.692 116.745 28.764 116.761 28.836C116.777 28.908 116.785 28.972 116.785 29.028C116.793 29.076 116.797 29.104 116.797 29.112L115.513 29.304C115.497 29.2 115.477 29.104 115.453 29.016C115.397 28.776 115.261 28.58 115.045 28.428C114.829 28.268 114.573 28.188 114.277 28.188C113.981 28.188 113.729 28.264 113.521 28.416C113.321 28.568 113.189 28.776 113.125 29.04C113.045 29.248 113.005 29.588 113.005 30.06C113.005 30.5 113.041 30.84 113.113 31.08C113.185 31.352 113.321 31.568 113.521 31.728C113.729 31.88 113.981 31.956 114.277 31.956C114.573 31.956 114.829 31.88 115.045 31.728C115.261 31.576 115.397 31.372 115.453 31.116L115.489 30.9L116.773 31.104C116.773 31.224 116.749 31.356 116.701 31.5C116.557 31.996 116.265 32.384 115.825 32.664ZM123.159 30.6L119.391 30.612V30.84C119.391 31.176 119.515 31.452 119.763 31.668C120.011 31.884 120.311 31.992 120.663 31.992C120.967 31.992 121.235 31.916 121.467 31.764C121.699 31.604 121.843 31.404 121.899 31.164L123.039 31.392C122.951 31.872 122.687 32.272 122.247 32.592C121.807 32.912 121.279 33.072 120.663 33.072C119.999 33.072 119.427 32.88 118.947 32.496C118.467 32.112 118.227 31.576 118.227 30.888V29.244C118.227 28.604 118.459 28.076 118.923 27.66C119.387 27.244 119.959 27.036 120.639 27.036C121.343 27.036 121.939 27.244 122.427 27.66C122.915 28.076 123.159 28.604 123.159 29.244V30.6ZM120.639 28.14C120.303 28.14 120.011 28.248 119.763 28.464C119.515 28.68 119.391 28.956 119.391 29.292V29.676L121.935 29.664V29.292C121.935 28.948 121.807 28.672 121.551 28.464C121.303 28.248 120.999 28.14 120.639 28.14Z" fill="#ADAFAE"/>
</svg>
