<svg width="66" height="20" viewBox="0 0 66 20" fill="none" xmlns="http://www.w3.org/2000/svg">
<path d="M3.33594 5.04688V15H1.45605V5.04688H3.33594ZM7.34863 9.34668V10.8301H2.84375V9.34668H7.34863ZM7.875 5.04688V6.53027H2.84375V5.04688H7.875ZM10.6436 9.11426V15H8.83887V7.60352H10.5479L10.6436 9.11426ZM12.8926 7.55566L12.8652 9.2373C12.765 9.21908 12.651 9.2054 12.5234 9.19629C12.4004 9.18717 12.2842 9.18262 12.1748 9.18262C11.8968 9.18262 11.653 9.22135 11.4434 9.29883C11.2337 9.37174 11.0583 9.47884 10.917 9.62012C10.7803 9.76139 10.6755 9.93457 10.6025 10.1396C10.5296 10.3402 10.4886 10.568 10.4795 10.8232L10.0898 10.7754C10.0898 10.306 10.1377 9.87077 10.2334 9.46973C10.3291 9.06868 10.4681 8.71777 10.6504 8.41699C10.8327 8.11621 11.0605 7.88379 11.334 7.71973C11.612 7.55111 11.931 7.4668 12.291 7.4668C12.3913 7.4668 12.4984 7.47591 12.6123 7.49414C12.7308 7.50781 12.8242 7.52832 12.8926 7.55566ZM17.0693 15.1367C16.5088 15.1367 16.0052 15.0456 15.5586 14.8633C15.112 14.681 14.7314 14.4281 14.417 14.1045C14.1071 13.7764 13.8678 13.3958 13.6992 12.9629C13.5352 12.5254 13.4531 12.056 13.4531 11.5547V11.2812C13.4531 10.7116 13.5352 10.1943 13.6992 9.72949C13.8633 9.26009 14.0957 8.85677 14.3965 8.51953C14.6973 8.18229 15.0573 7.92253 15.4766 7.74023C15.8958 7.55794 16.3584 7.4668 16.8643 7.4668C17.3883 7.4668 17.8509 7.55566 18.252 7.7334C18.653 7.90658 18.988 8.15267 19.2568 8.47168C19.5257 8.79069 19.7285 9.1735 19.8652 9.62012C20.002 10.0622 20.0703 10.5521 20.0703 11.0898V11.8486H14.2734V10.6045H18.293V10.4678C18.2839 10.1807 18.2292 9.91862 18.1289 9.68164C18.0286 9.4401 17.8737 9.2487 17.6641 9.10742C17.4544 8.96159 17.1833 8.88867 16.8506 8.88867C16.5817 8.88867 16.347 8.94792 16.1465 9.06641C15.9505 9.18034 15.7865 9.3444 15.6543 9.55859C15.5267 9.76823 15.431 10.0189 15.3672 10.3105C15.3034 10.6022 15.2715 10.9258 15.2715 11.2812V11.5547C15.2715 11.8646 15.3125 12.1517 15.3945 12.416C15.4811 12.6803 15.6064 12.9105 15.7705 13.1064C15.9391 13.2979 16.1396 13.4482 16.3721 13.5576C16.609 13.6624 16.8779 13.7148 17.1787 13.7148C17.557 13.7148 17.8988 13.6419 18.2041 13.4961C18.514 13.3457 18.7829 13.1247 19.0107 12.833L19.9199 13.7764C19.765 14.0042 19.5553 14.223 19.291 14.4326C19.0312 14.6423 18.7168 14.8132 18.3477 14.9453C17.9785 15.0729 17.5524 15.1367 17.0693 15.1367ZM24.6025 15.1367C24.042 15.1367 23.5384 15.0456 23.0918 14.8633C22.6452 14.681 22.2646 14.4281 21.9502 14.1045C21.6403 13.7764 21.401 13.3958 21.2324 12.9629C21.0684 12.5254 20.9863 12.056 20.9863 11.5547V11.2812C20.9863 10.7116 21.0684 10.1943 21.2324 9.72949C21.3965 9.26009 21.6289 8.85677 21.9297 8.51953C22.2305 8.18229 22.5905 7.92253 23.0098 7.74023C23.429 7.55794 23.8916 7.4668 24.3975 7.4668C24.9215 7.4668 25.3841 7.55566 25.7852 7.7334C26.1862 7.90658 26.5212 8.15267 26.79 8.47168C27.0589 8.79069 27.2617 9.1735 27.3984 9.62012C27.5352 10.0622 27.6035 10.5521 27.6035 11.0898V11.8486H21.8066V10.6045H25.8262V10.4678C25.8171 10.1807 25.7624 9.91862 25.6621 9.68164C25.5618 9.4401 25.4069 9.2487 25.1973 9.10742C24.9876 8.96159 24.7165 8.88867 24.3838 8.88867C24.1149 8.88867 23.8802 8.94792 23.6797 9.06641C23.4837 9.18034 23.3197 9.3444 23.1875 9.55859C23.0599 9.76823 22.9642 10.0189 22.9004 10.3105C22.8366 10.6022 22.8047 10.9258 22.8047 11.2812V11.5547C22.8047 11.8646 22.8457 12.1517 22.9277 12.416C23.0143 12.6803 23.1396 12.9105 23.3037 13.1064C23.4723 13.2979 23.6729 13.4482 23.9053 13.5576C24.1423 13.6624 24.4111 13.7148 24.7119 13.7148C25.0902 13.7148 25.432 13.6419 25.7373 13.4961C26.0472 13.3457 26.3161 13.1247 26.5439 12.833L27.4531 13.7764C27.2982 14.0042 27.0885 14.223 26.8242 14.4326C26.5645 14.6423 26.25 14.8132 25.8809 14.9453C25.5117 15.0729 25.0856 15.1367 24.6025 15.1367Z" fill="#101010"/>
<path d="M33.8731 14.964L35.9971 7.188H36.8251L34.7131 14.964H33.8731ZM43.9638 9.264C44.5718 9.264 45.0478 9.416 45.3918 9.72C45.7358 10.024 45.9078 10.444 45.9078 10.98V15H45.1038V10.98C45.1038 10.628 44.9798 10.356 44.7318 10.164C44.4838 9.964 44.1638 9.864 43.7718 9.864C43.3798 9.864 43.0598 9.964 42.8118 10.164C42.5638 10.356 42.4398 10.628 42.4398 10.98V15H41.5998V9.3H42.4398V9.936C42.7758 9.488 43.2838 9.264 43.9638 9.264ZM48.5081 8.364C48.3241 8.364 48.1681 8.3 48.0401 8.172C47.9201 8.044 47.8601 7.888 47.8601 7.704C47.8601 7.528 47.9201 7.38 48.0401 7.26C48.1681 7.14 48.3241 7.08 48.5081 7.08C48.6841 7.08 48.8361 7.14 48.9641 7.26C49.0921 7.38 49.1561 7.528 49.1561 7.704C49.1561 7.888 49.0921 8.044 48.9641 8.172C48.8361 8.3 48.6841 8.364 48.5081 8.364ZM48.0761 15V9.3H48.9041V15H48.0761ZM54.3842 9.3H55.2242V14.892C55.2242 15.38 55.1362 15.796 54.9602 16.14C54.7922 16.484 54.5522 16.744 54.2402 16.92C53.9282 17.096 53.5802 17.212 53.1962 17.268C52.8202 17.332 52.4002 17.344 51.9362 17.304L51.9602 16.572C52.7202 16.644 53.3122 16.544 53.7362 16.272C54.1682 16.008 54.3842 15.552 54.3842 14.904V14.412C54.0482 14.86 53.5402 15.084 52.8602 15.084C52.2522 15.084 51.7762 14.932 51.4322 14.628C51.0882 14.324 50.9162 13.904 50.9162 13.368V10.992C50.9162 10.456 51.0882 10.036 51.4322 9.732C51.7762 9.42 52.2482 9.264 52.8482 9.264C53.5362 9.264 54.0482 9.492 54.3842 9.948V9.3ZM52.0922 14.196C52.3402 14.388 52.6602 14.484 53.0522 14.484C53.4442 14.484 53.7642 14.388 54.0122 14.196C54.2602 13.996 54.3842 13.72 54.3842 13.368V10.992C54.3842 10.632 54.2602 10.356 54.0122 10.164C53.7722 9.972 53.4522 9.876 53.0522 9.876C52.6602 9.876 52.3402 9.972 52.0922 10.164C51.8442 10.356 51.7202 10.632 51.7202 10.992V13.368C51.7202 13.72 51.8442 13.996 52.0922 14.196ZM59.2688 9.264C59.8768 9.264 60.3528 9.416 60.6968 9.72C61.0408 10.024 61.2128 10.444 61.2128 10.98V15H60.4088V10.98C60.4088 10.628 60.2848 10.356 60.0368 10.164C59.7888 9.964 59.4688 9.864 59.0768 9.864C58.6848 9.864 58.3648 9.964 58.1168 10.164C57.8688 10.356 57.7448 10.628 57.7448 10.98V15H56.9168V7.188H57.7448V9.96C58.0808 9.496 58.5888 9.264 59.2688 9.264ZM65.5768 10.056H64.1728V13.32C64.1728 13.656 64.2488 13.904 64.4008 14.064C64.5528 14.216 64.8008 14.292 65.1448 14.292H65.5408V15C65.4128 15.008 65.2328 15.012 65.0008 15.012C64.4408 15.012 64.0288 14.908 63.7648 14.7C63.5088 14.492 63.3768 14.132 63.3688 13.62V10.056H62.5288V9.432H63.3688V7.92H64.1728V9.432H65.5768V10.056Z" fill="#101010"/>
</svg>
