<svg width="67" height="84" viewBox="0 0 67 84" fill="none" xmlns="http://www.w3.org/2000/svg">
<path d="M23.72 49.984H25.028V58H23.72V54.568H20.48V58H19.172V49.984H20.48V53.44H23.72V49.984ZM30.8586 57.52C30.4026 57.904 29.8186 58.096 29.1066 58.096C28.3946 58.096 27.8066 57.904 27.3426 57.52C26.8786 57.128 26.6466 56.644 26.6466 56.068V54.076C26.6466 53.516 26.8826 53.04 27.3546 52.648C27.8346 52.256 28.4186 52.06 29.1066 52.06C29.7946 52.06 30.3746 52.256 30.8466 52.648C31.3186 53.032 31.5546 53.508 31.5546 54.076V56.068C31.5546 56.644 31.3226 57.128 30.8586 57.52ZM28.2066 56.764C28.4226 56.964 28.7226 57.064 29.1066 57.064C29.4906 57.064 29.7866 56.964 29.9946 56.764C30.2026 56.556 30.3066 56.296 30.3066 55.984V54.16C30.3066 53.872 30.1946 53.628 29.9706 53.428C29.7546 53.22 29.4666 53.116 29.1066 53.116C28.7546 53.116 28.4626 53.22 28.2306 53.428C28.0066 53.628 27.8946 53.872 27.8946 54.16V55.984C27.8946 56.296 27.9986 56.556 28.2066 56.764ZM39.3526 52.06C40.0086 52.06 40.5086 52.232 40.8526 52.576C41.1966 52.912 41.3686 53.376 41.3686 53.968V58H40.1086V53.968C40.1086 53.664 40.0086 53.428 39.8086 53.26C39.6086 53.084 39.3486 52.996 39.0286 52.996C38.7086 52.996 38.4486 53.084 38.2486 53.26C38.0486 53.428 37.9486 53.664 37.9486 53.968V58H36.7006V53.968C36.7006 53.672 36.5966 53.436 36.3886 53.26C36.1886 53.084 35.9286 52.996 35.6086 52.996C35.2886 52.996 35.0286 53.084 34.8286 53.26C34.6366 53.428 34.5406 53.664 34.5406 53.968V58H33.2326V52.12H34.5406V52.648C34.8846 52.256 35.3486 52.06 35.9326 52.06C36.8286 52.06 37.4286 52.364 37.7326 52.972C38.0526 52.364 38.5926 52.06 39.3526 52.06ZM47.9732 55.6L44.2052 55.612V55.84C44.2052 56.176 44.3292 56.452 44.5772 56.668C44.8252 56.884 45.1252 56.992 45.4772 56.992C45.7812 56.992 46.0492 56.916 46.2812 56.764C46.5132 56.604 46.6572 56.404 46.7132 56.164L47.8532 56.392C47.7652 56.872 47.5012 57.272 47.0612 57.592C46.6212 57.912 46.0932 58.072 45.4772 58.072C44.8132 58.072 44.2412 57.88 43.7612 57.496C43.2812 57.112 43.0412 56.576 43.0412 55.888V54.244C43.0412 53.604 43.2732 53.076 43.7372 52.66C44.2012 52.244 44.7732 52.036 45.4532 52.036C46.1572 52.036 46.7532 52.244 47.2412 52.66C47.7292 53.076 47.9732 53.604 47.9732 54.244V55.6ZM45.4532 53.14C45.1172 53.14 44.8252 53.248 44.5772 53.464C44.3292 53.68 44.2052 53.956 44.2052 54.292V54.676L46.7492 54.664V54.292C46.7492 53.948 46.6212 53.672 46.3652 53.464C46.1172 53.248 45.8132 53.14 45.4532 53.14Z" fill="#FF4332"/>
<rect x="14" width="39" height="3" fill="#FF4332"/>
<path d="M38.6 38.5601H27.4C25.58 38.5601 23.92 37.1601 23.62 35.3701L22.29 27.4001C22.07 26.1601 22.68 24.5701 23.67 23.7801L30.6 18.2301C31.94 17.1501 34.05 17.1601 35.4 18.2401L42.33 23.7801C43.31 24.5701 43.91 26.1601 43.71 27.4001L42.38 35.3601C42.08 37.1301 40.38 38.5601 38.6 38.5601ZM32.99 18.9301C32.46 18.9301 31.93 19.0901 31.54 19.4001L24.61 24.9601C24.05 25.4101 23.65 26.4501 23.77 27.1601L25.1 35.1201C25.28 36.1701 26.33 37.0601 27.4 37.0601H38.6C39.67 37.0601 40.72 36.1701 40.9 35.1101L42.23 27.1501C42.34 26.4501 41.94 25.3901 41.39 24.9501L34.46 19.4101C34.06 19.0901 33.52 18.9301 32.99 18.9301Z" fill="#FF4332"/>
<path d="M32.99 18.9301C32.46 18.9301 31.93 19.0901 31.54 19.4001L24.61 24.9601C24.05 25.4101 23.65 26.4501 23.77 27.1601L25.1 35.1201C25.28 36.1701 26.33 37.0601 27.4 37.0601H38.6C39.67 37.0601 40.72 36.1701 40.9 35.1101L42.23 27.1501C42.34 26.4501 41.94 25.3901 41.39 24.9501L34.46 19.4101C34.06 19.0901 33.52 18.9301 32.99 18.9301Z" fill="#FF4332"/>
<path d="M33 34.75C32.59 34.75 32.25 34.41 32.25 34V31C32.25 30.59 32.59 30.25 33 30.25C33.41 30.25 33.75 30.59 33.75 31V34C33.75 34.41 33.41 34.75 33 34.75Z" fill="white"/>
</svg>
