<svg width="169" height="14" viewBox="0 0 169 14" fill="none" xmlns="http://www.w3.org/2000/svg">
<path d="M17.883 8.35952C16.5462 8.35952 15.4541 7.27375 15.4541 5.93065C15.4541 4.58755 16.5462 3.50806 17.883 3.50806C19.2198 3.50806 20.3118 4.59383 20.3118 5.93693C20.3118 7.28002 19.2198 8.35952 17.883 8.35952ZM17.883 4.44948C17.0671 4.44948 16.3955 5.11475 16.3955 5.93693C16.3955 6.7591 17.0608 7.42437 17.883 7.42437C18.7051 7.42437 19.3704 6.7591 19.3704 5.93693C19.3704 5.11475 18.6989 4.44948 17.883 4.44948Z" fill="#DADADA"/>
<path d="M17.8849 13.75C16.918 13.7482 15.9893 13.3726 15.2929 12.7019C13.4414 10.9195 11.3954 8.07636 12.1673 4.69351C12.864 1.62448 15.5439 0.25 17.8849 0.25H17.8912C20.2322 0.25 22.9121 1.62448 23.6088 4.69979C24.3745 8.08264 22.3284 10.9195 20.477 12.7019C19.7806 13.3726 18.8518 13.7482 17.8849 13.75ZM17.8849 1.19142C16.0586 1.19142 13.7113 2.16423 13.0899 4.90063C12.4121 7.85669 14.2699 10.4048 15.9519 12.0178C16.4703 12.5219 17.1649 12.804 17.8881 12.804C18.6112 12.804 19.3058 12.5219 19.8243 12.0178C21.5 10.4048 23.3577 7.85669 22.6925 4.90063C22.0648 2.16423 19.7113 1.19142 17.8849 1.19142Z" fill="#878787"/>
<path d="M36.0449 2.42188V11H34.9609V3.77539L32.7754 4.57227V3.59375L35.875 2.42188H36.0449ZM45.8938 11.168C45.0938 11.168 44.4498 10.948 43.9618 10.508C43.4818 10.06 43.2418 9.468 43.2418 8.732V7.844H44.3098V8.744C44.3098 9.2 44.4538 9.564 44.7418 9.836C45.0298 10.108 45.4138 10.244 45.8938 10.244C46.3658 10.244 46.7498 10.108 47.0458 9.836C47.3418 9.556 47.4898 9.192 47.4898 8.744V3.08H48.5578V8.732C48.5578 9.468 48.3098 10.06 47.8138 10.508C47.3258 10.948 46.6858 11.168 45.8938 11.168ZM54.3513 5.216H55.4193V11H54.3513V10.412C54.0153 10.836 53.5273 11.048 52.8873 11.048C52.2553 11.048 51.7673 10.888 51.4233 10.568C51.0873 10.248 50.9193 9.804 50.9193 9.236V5.216H51.9393V9.236C51.9393 9.556 52.0513 9.812 52.2753 10.004C52.4993 10.188 52.7913 10.28 53.1513 10.28C53.5033 10.28 53.7913 10.188 54.0153 10.004C54.2393 9.812 54.3513 9.556 54.3513 9.236V5.216ZM60.2325 5.168C60.8645 5.168 61.3485 5.328 61.6845 5.648C62.0285 5.968 62.2005 6.408 62.2005 6.968V11H61.1805V6.968C61.1805 6.648 61.0685 6.396 60.8445 6.212C60.6205 6.028 60.3285 5.936 59.9685 5.936C59.6085 5.936 59.3165 6.028 59.0925 6.212C58.8765 6.396 58.7685 6.648 58.7685 6.968V11H57.7005V5.216H58.7685V5.804C59.1045 5.38 59.5925 5.168 60.2325 5.168ZM69.1858 8.54L65.4298 8.552V8.948C65.4298 9.308 65.5618 9.604 65.8258 9.836C66.0978 10.068 66.4218 10.184 66.7978 10.184C67.1258 10.184 67.4178 10.1 67.6738 9.932C67.9298 9.764 68.0858 9.548 68.1418 9.284L69.0778 9.476C68.9898 9.94 68.7338 10.324 68.3098 10.628C67.8858 10.924 67.3818 11.072 66.7978 11.072C66.1738 11.072 65.6298 10.888 65.1658 10.52C64.7098 10.152 64.4818 9.64 64.4818 8.984V7.268C64.4818 6.652 64.7018 6.144 65.1418 5.744C65.5898 5.344 66.1378 5.144 66.7858 5.144C67.4658 5.144 68.0338 5.344 68.4898 5.744C68.9538 6.136 69.1858 6.644 69.1858 7.268V8.54ZM66.7858 6.044C66.4258 6.044 66.1098 6.164 65.8378 6.404C65.5658 6.636 65.4298 6.936 65.4298 7.304V7.772L68.1898 7.76V7.304C68.1898 6.928 68.0538 6.624 67.7818 6.392C67.5098 6.16 67.1778 6.044 66.7858 6.044ZM78.334 2.42188V11H77.25V3.77539L75.0645 4.57227V3.59375L78.1641 2.42188H78.334ZM86.1816 2.45703H86.2754V3.37695H86.1816C85.6074 3.37695 85.127 3.4707 84.7402 3.6582C84.3535 3.8418 84.0469 4.08984 83.8203 4.40234C83.5938 4.71094 83.4297 5.05859 83.3281 5.44531C83.2305 5.83203 83.1816 6.22461 83.1816 6.62305V7.87695C83.1816 8.25586 83.2266 8.5918 83.3164 8.88477C83.4062 9.17383 83.5293 9.41797 83.6855 9.61719C83.8418 9.81641 84.0176 9.9668 84.2129 10.0684C84.4121 10.1699 84.6191 10.2207 84.834 10.2207C85.084 10.2207 85.3066 10.1738 85.502 10.0801C85.6973 9.98242 85.8613 9.84766 85.9941 9.67578C86.1309 9.5 86.2344 9.29297 86.3047 9.05469C86.375 8.81641 86.4102 8.55469 86.4102 8.26953C86.4102 8.01562 86.3789 7.77148 86.3164 7.53711C86.2539 7.29883 86.1582 7.08789 86.0293 6.9043C85.9004 6.7168 85.7383 6.57031 85.543 6.46484C85.3516 6.35547 85.123 6.30078 84.8574 6.30078C84.5566 6.30078 84.2754 6.375 84.0137 6.52344C83.7559 6.66797 83.543 6.85938 83.375 7.09766C83.2109 7.33203 83.1172 7.58789 83.0938 7.86523L82.5195 7.85938C82.5742 7.42188 82.6758 7.04883 82.8242 6.74023C82.9766 6.42773 83.1641 6.17383 83.3867 5.97852C83.6133 5.7793 83.8652 5.63477 84.1426 5.54492C84.4238 5.45117 84.7207 5.4043 85.0332 5.4043C85.459 5.4043 85.8262 5.48438 86.1348 5.64453C86.4434 5.80469 86.6973 6.01953 86.8965 6.28906C87.0957 6.55469 87.2422 6.85547 87.3359 7.19141C87.4336 7.52344 87.4824 7.86523 87.4824 8.2168C87.4824 8.61914 87.4258 8.99609 87.3125 9.34766C87.1992 9.69922 87.0293 10.0078 86.8027 10.2734C86.5801 10.5391 86.3047 10.7461 85.9766 10.8945C85.6484 11.043 85.2676 11.1172 84.834 11.1172C84.373 11.1172 83.9707 11.0234 83.627 10.8359C83.2832 10.6445 82.998 10.3906 82.7715 10.0742C82.5449 9.75781 82.375 9.40625 82.2617 9.01953C82.1484 8.63281 82.0918 8.24023 82.0918 7.8418V7.33203C82.0918 6.73047 82.1523 6.14062 82.2734 5.5625C82.3945 4.98438 82.6035 4.46094 82.9004 3.99219C83.2012 3.52344 83.6172 3.15039 84.1484 2.87305C84.6797 2.5957 85.3574 2.45703 86.1816 2.45703Z" fill="#878787"/>
<circle cx="2" cy="2" r="2" transform="matrix(-1 0 0 1 101.773 5)" fill="#DADADA"/>
<path d="M114.045 2.42188V11H112.961V3.77539L110.775 4.57227V3.59375L113.875 2.42188H114.045ZM122.822 10.1094V11H117.238V10.2207L120.033 7.10938C120.377 6.72656 120.643 6.40234 120.83 6.13672C121.021 5.86719 121.154 5.62695 121.229 5.41602C121.307 5.20117 121.346 4.98242 121.346 4.75977C121.346 4.47852 121.287 4.22461 121.17 3.99805C121.057 3.76758 120.889 3.58398 120.666 3.44727C120.443 3.31055 120.174 3.24219 119.857 3.24219C119.479 3.24219 119.162 3.31641 118.908 3.46484C118.658 3.60938 118.471 3.8125 118.346 4.07422C118.221 4.33594 118.158 4.63672 118.158 4.97656H117.074C117.074 4.49609 117.18 4.05664 117.391 3.6582C117.602 3.25977 117.914 2.94336 118.328 2.70898C118.742 2.4707 119.252 2.35156 119.857 2.35156C120.396 2.35156 120.857 2.44727 121.24 2.63867C121.623 2.82617 121.916 3.0918 122.119 3.43555C122.326 3.77539 122.43 4.17383 122.43 4.63086C122.43 4.88086 122.387 5.13477 122.301 5.39258C122.219 5.64648 122.104 5.90039 121.955 6.1543C121.811 6.4082 121.641 6.6582 121.445 6.9043C121.254 7.15039 121.049 7.39258 120.83 7.63086L118.545 10.1094H122.822ZM130.748 3.08H131.816V11H130.748V10.352C130.404 10.848 129.888 11.096 129.2 11.096C128.568 11.096 128.08 10.936 127.736 10.616C127.4 10.296 127.232 9.852 127.232 9.284V6.98C127.232 6.42 127.404 5.98 127.748 5.66C128.092 5.332 128.572 5.168 129.188 5.168C129.892 5.168 130.412 5.416 130.748 5.912V3.08ZM130.664 9.284V6.98C130.664 6.644 130.552 6.388 130.328 6.212C130.112 6.028 129.82 5.936 129.452 5.936C129.1 5.936 128.812 6.028 128.588 6.212C128.364 6.396 128.252 6.652 128.252 6.98V9.284C128.252 9.604 128.364 9.86 128.588 10.052C128.812 10.236 129.104 10.328 129.464 10.328C129.816 10.328 130.104 10.236 130.328 10.052C130.552 9.86 130.664 9.604 130.664 9.284ZM135.746 5.192C136.434 5.192 136.986 5.364 137.402 5.708C137.818 6.052 138.026 6.512 138.026 7.088V11H136.958V10.076C136.702 10.748 136.114 11.084 135.194 11.084C134.642 11.084 134.19 10.956 133.838 10.7C133.486 10.436 133.31 10.04 133.31 9.512C133.31 8.968 133.51 8.544 133.91 8.24C134.318 7.936 134.89 7.784 135.626 7.784H136.958V7.244C136.958 6.884 136.854 6.608 136.646 6.416C136.438 6.216 136.138 6.116 135.746 6.116C135.41 6.116 135.134 6.188 134.918 6.332C134.71 6.468 134.59 6.652 134.558 6.884L133.49 6.752C133.53 6.296 133.758 5.924 134.174 5.636C134.59 5.34 135.114 5.192 135.746 5.192ZM135.494 10.328C135.902 10.328 136.246 10.232 136.526 10.04C136.814 9.84 136.958 9.556 136.958 9.188V8.348H135.842C135.386 8.348 135.03 8.44 134.774 8.624C134.518 8.808 134.39 9.064 134.39 9.392C134.39 9.68 134.486 9.908 134.678 10.076C134.87 10.244 135.142 10.328 135.494 10.328ZM139.484 13.412V12.512H139.604C140.06 12.504 140.384 12.412 140.576 12.236C140.776 12.068 140.952 11.708 141.104 11.156L139.16 5.384H140.3L141.656 9.848L143 5.384H144.128L142.04 11.54C141.776 12.292 141.492 12.792 141.188 13.04C140.884 13.288 140.36 13.412 139.616 13.412H139.484ZM151.144 6.14H149.764V9.188C149.764 9.5 149.832 9.732 149.968 9.884C150.112 10.028 150.34 10.1 150.652 10.1H151.084V11C150.78 11.016 150.568 11.024 150.448 11.024C149.856 11.024 149.424 10.92 149.152 10.712C148.88 10.496 148.744 10.12 148.744 9.584V6.14H147.892V5.336H148.744V3.776H149.764V5.336H151.144V6.14ZM156.459 10.544C156.027 10.912 155.467 11.096 154.779 11.096C154.091 11.096 153.527 10.912 153.087 10.544C152.647 10.168 152.427 9.7 152.427 9.14V7.1C152.427 6.556 152.651 6.1 153.099 5.732C153.555 5.356 154.115 5.168 154.779 5.168C155.443 5.168 155.999 5.352 156.447 5.72C156.895 6.088 157.119 6.548 157.119 7.1V9.14C157.119 9.708 156.899 10.176 156.459 10.544ZM153.795 9.92C154.035 10.136 154.363 10.244 154.779 10.244C155.195 10.244 155.519 10.136 155.751 9.92C155.983 9.704 156.099 9.424 156.099 9.08V7.16C156.099 6.848 155.975 6.58 155.727 6.356C155.479 6.132 155.163 6.02 154.779 6.02C154.395 6.02 154.075 6.132 153.819 6.356C153.571 6.58 153.447 6.848 153.447 7.16V9.08C153.447 9.416 153.563 9.696 153.795 9.92ZM162.258 5.216H163.326V11H162.258V10.412C161.922 10.836 161.434 11.048 160.794 11.048C160.162 11.048 159.674 10.888 159.33 10.568C158.994 10.248 158.826 9.804 158.826 9.236V5.216H159.846V9.236C159.846 9.556 159.958 9.812 160.182 10.004C160.406 10.188 160.698 10.28 161.058 10.28C161.41 10.28 161.698 10.188 161.922 10.004C162.146 9.812 162.258 9.556 162.258 9.236V5.216ZM167.747 5.24C168.043 5.24 168.279 5.3 168.455 5.42L168.263 6.428C168.095 6.324 167.851 6.288 167.531 6.32C167.203 6.336 166.915 6.472 166.667 6.728C166.427 6.976 166.303 7.292 166.295 7.676V11H165.227V5.216H166.295V6.404C166.631 5.628 167.115 5.24 167.747 5.24Z" fill="#878787"/>
</svg>
