<svg width="12" height="14" viewBox="0 0 12 14" fill="none" xmlns="http://www.w3.org/2000/svg">
<path d="M5.88297 8.35952C4.54615 8.35952 3.4541 7.27375 3.4541 5.93065C3.4541 4.58755 4.54615 3.50806 5.88297 3.50806C7.21979 3.50806 8.31184 4.59383 8.31184 5.93693C8.31184 7.28002 7.21979 8.35952 5.88297 8.35952ZM5.88297 4.44948C5.06707 4.44948 4.39552 5.11475 4.39552 5.93693C4.39552 6.7591 5.0608 7.42437 5.88297 7.42437C6.70515 7.42437 7.37042 6.7591 7.37042 5.93693C7.37042 5.11475 6.69887 4.44948 5.88297 4.44948Z" fill="#DADADA"/>
<path d="M5.88492 13.75C4.91803 13.7482 3.98929 13.3726 3.29287 12.7019C1.44141 10.9195 -0.604619 8.07636 0.167348 4.69351C0.864001 1.62448 3.54392 0.25 5.88492 0.25H5.8912C8.2322 0.25 10.9121 1.62448 11.6088 4.69979C12.3745 8.08264 10.3284 10.9195 8.47697 12.7019C7.78055 13.3726 6.85181 13.7482 5.88492 13.75ZM5.88492 1.19142C4.05856 1.19142 1.71128 2.16423 1.08994 4.90063C0.412118 7.85669 2.26986 10.4048 3.95187 12.0178C4.47029 12.5219 5.16492 12.804 5.88806 12.804C6.6112 12.804 7.30583 12.5219 7.82425 12.0178C9.49998 10.4048 11.3577 7.85669 10.6925 4.90063C10.0648 2.16423 7.71128 1.19142 5.88492 1.19142Z" fill="#878787"/>
</svg>
