<svg width="67" height="84" viewBox="0 0 67 84" fill="none" xmlns="http://www.w3.org/2000/svg">
<path d="M17.4173 50.08H18.4733V58H17.4053V51.472L15.6773 54.628H15.0653L13.3253 51.52V58H12.2573V50.08H13.3133L15.3653 53.392L17.4173 50.08ZM24.5932 55.54L20.8372 55.552V55.948C20.8372 56.308 20.9692 56.604 21.2332 56.836C21.5052 57.068 21.8292 57.184 22.2052 57.184C22.5332 57.184 22.8252 57.1 23.0812 56.932C23.3372 56.764 23.4932 56.548 23.5492 56.284L24.4852 56.476C24.3972 56.94 24.1412 57.324 23.7172 57.628C23.2932 57.924 22.7892 58.072 22.2052 58.072C21.5812 58.072 21.0372 57.888 20.5732 57.52C20.1172 57.152 19.8892 56.64 19.8892 55.984V54.268C19.8892 53.652 20.1092 53.144 20.5492 52.744C20.9972 52.344 21.5452 52.144 22.1932 52.144C22.8732 52.144 23.4412 52.344 23.8972 52.744C24.3612 53.136 24.5932 53.644 24.5932 54.268V55.54ZM22.1932 53.044C21.8332 53.044 21.5172 53.164 21.2452 53.404C20.9732 53.636 20.8372 53.936 20.8372 54.304V54.772L23.5972 54.76V54.304C23.5972 53.928 23.4612 53.624 23.1892 53.392C22.9172 53.16 22.5852 53.044 22.1932 53.044ZM28.0294 58.048C27.3654 58.048 26.8254 57.892 26.4094 57.58C25.9934 57.26 25.7854 56.852 25.7854 56.356V56.212H26.7694V56.38C26.7694 56.628 26.8854 56.836 27.1174 57.004C27.3574 57.164 27.6574 57.244 28.0174 57.244C28.3614 57.244 28.6414 57.168 28.8574 57.016C29.0734 56.856 29.1814 56.652 29.1814 56.404C29.1814 56.204 29.0974 56.048 28.9294 55.936C28.7614 55.824 28.4734 55.712 28.0654 55.6C27.6574 55.488 27.3654 55.396 27.1894 55.324C26.7414 55.156 26.3934 54.964 26.1454 54.748C25.9054 54.532 25.7854 54.232 25.7854 53.848C25.7854 53.344 25.9854 52.94 26.3854 52.636C26.7854 52.332 27.3134 52.18 27.9694 52.18C28.6254 52.18 29.1574 52.336 29.5654 52.648C29.9734 52.96 30.1774 53.368 30.1774 53.872V53.98H29.1814V53.872C29.1814 53.624 29.0694 53.42 28.8454 53.26C28.6214 53.1 28.3334 53.02 27.9814 53.02C27.6374 53.02 27.3574 53.096 27.1414 53.248C26.9254 53.392 26.8174 53.584 26.8174 53.824C26.8174 53.944 26.8454 54.048 26.9014 54.136C26.9654 54.224 27.0654 54.3 27.2014 54.364C27.3454 54.428 27.4774 54.48 27.5974 54.52C27.7254 54.56 27.9014 54.612 28.1254 54.676C28.3574 54.74 28.5374 54.792 28.6654 54.832C29.1774 54.992 29.5694 55.188 29.8414 55.42C30.1214 55.644 30.2614 55.964 30.2614 56.38C30.2614 56.892 30.0574 57.3 29.6494 57.604C29.2414 57.9 28.7014 58.048 28.0294 58.048ZM33.6928 58.048C33.0288 58.048 32.4888 57.892 32.0728 57.58C31.6568 57.26 31.4488 56.852 31.4488 56.356V56.212H32.4328V56.38C32.4328 56.628 32.5488 56.836 32.7808 57.004C33.0208 57.164 33.3208 57.244 33.6808 57.244C34.0248 57.244 34.3048 57.168 34.5208 57.016C34.7368 56.856 34.8448 56.652 34.8448 56.404C34.8448 56.204 34.7608 56.048 34.5928 55.936C34.4248 55.824 34.1368 55.712 33.7288 55.6C33.3208 55.488 33.0288 55.396 32.8528 55.324C32.4048 55.156 32.0568 54.964 31.8088 54.748C31.5688 54.532 31.4488 54.232 31.4488 53.848C31.4488 53.344 31.6488 52.94 32.0488 52.636C32.4488 52.332 32.9768 52.18 33.6328 52.18C34.2888 52.18 34.8208 52.336 35.2288 52.648C35.6368 52.96 35.8408 53.368 35.8408 53.872V53.98H34.8448V53.872C34.8448 53.624 34.7328 53.42 34.5088 53.26C34.2848 53.1 33.9968 53.02 33.6448 53.02C33.3008 53.02 33.0208 53.096 32.8048 53.248C32.5888 53.392 32.4808 53.584 32.4808 53.824C32.4808 53.944 32.5088 54.048 32.5648 54.136C32.6288 54.224 32.7288 54.3 32.8648 54.364C33.0088 54.428 33.1408 54.48 33.2608 54.52C33.3888 54.56 33.5648 54.612 33.7888 54.676C34.0208 54.74 34.2008 54.792 34.3288 54.832C34.8408 54.992 35.2328 55.188 35.5048 55.42C35.7848 55.644 35.9248 55.964 35.9248 56.38C35.9248 56.892 35.7208 57.3 35.3128 57.604C34.9048 57.9 34.3648 58.048 33.6928 58.048ZM39.4642 52.192C40.1522 52.192 40.7042 52.364 41.1202 52.708C41.5362 53.052 41.7442 53.512 41.7442 54.088V58H40.6762V57.076C40.4202 57.748 39.8322 58.084 38.9122 58.084C38.3602 58.084 37.9082 57.956 37.5562 57.7C37.2042 57.436 37.0282 57.04 37.0282 56.512C37.0282 55.968 37.2282 55.544 37.6282 55.24C38.0362 54.936 38.6082 54.784 39.3442 54.784H40.6762V54.244C40.6762 53.884 40.5722 53.608 40.3642 53.416C40.1562 53.216 39.8562 53.116 39.4642 53.116C39.1282 53.116 38.8522 53.188 38.6362 53.332C38.4282 53.468 38.3082 53.652 38.2762 53.884L37.2082 53.752C37.2482 53.296 37.4762 52.924 37.8922 52.636C38.3082 52.34 38.8322 52.192 39.4642 52.192ZM39.2122 57.328C39.6202 57.328 39.9642 57.232 40.2442 57.04C40.5322 56.84 40.6762 56.556 40.6762 56.188V55.348H39.5602C39.1042 55.348 38.7482 55.44 38.4922 55.624C38.2362 55.808 38.1082 56.064 38.1082 56.392C38.1082 56.68 38.2042 56.908 38.3962 57.076C38.5882 57.244 38.8602 57.328 39.2122 57.328ZM46.5258 52.216H47.5938V57.772C47.5938 58.308 47.4938 58.76 47.2938 59.128C47.1018 59.496 46.8338 59.768 46.4898 59.944C46.1458 60.12 45.7698 60.232 45.3618 60.28C44.9618 60.336 44.5218 60.34 44.0418 60.292L44.0778 59.344C44.8298 59.448 45.4258 59.372 45.8658 59.116C46.3058 58.868 46.5258 58.428 46.5258 57.796V57.46C46.1898 57.884 45.7018 58.096 45.0618 58.096C44.4298 58.096 43.9418 57.936 43.5978 57.616C43.2618 57.296 43.0938 56.852 43.0938 56.284V53.98C43.0938 53.42 43.2658 52.98 43.6098 52.66C43.9538 52.332 44.4338 52.168 45.0498 52.168C45.6978 52.168 46.1898 52.38 46.5258 52.804V52.216ZM45.3258 57.328C45.6778 57.328 45.9658 57.236 46.1898 57.052C46.4138 56.86 46.5258 56.604 46.5258 56.284V53.98C46.5258 53.644 46.4138 53.388 46.1898 53.212C45.9738 53.028 45.6818 52.936 45.3138 52.936C44.9618 52.936 44.6738 53.028 44.4498 53.212C44.2258 53.396 44.1138 53.652 44.1138 53.98V56.284C44.1138 56.604 44.2258 56.86 44.4498 57.052C44.6738 57.236 44.9658 57.328 45.3258 57.328ZM53.8362 55.54L50.0802 55.552V55.948C50.0802 56.308 50.2122 56.604 50.4762 56.836C50.7482 57.068 51.0722 57.184 51.4482 57.184C51.7762 57.184 52.0682 57.1 52.3242 56.932C52.5802 56.764 52.7362 56.548 52.7922 56.284L53.7282 56.476C53.6402 56.94 53.3842 57.324 52.9602 57.628C52.5362 57.924 52.0322 58.072 51.4482 58.072C50.8242 58.072 50.2802 57.888 49.8162 57.52C49.3602 57.152 49.1322 56.64 49.1322 55.984V54.268C49.1322 53.652 49.3522 53.144 49.7922 52.744C50.2402 52.344 50.7882 52.144 51.4362 52.144C52.1162 52.144 52.6842 52.344 53.1402 52.744C53.6042 53.136 53.8362 53.644 53.8362 54.268V55.54ZM51.4362 53.044C51.0762 53.044 50.7602 53.164 50.4882 53.404C50.2162 53.636 50.0802 53.936 50.0802 54.304V54.772L52.8402 54.76V54.304C52.8402 53.928 52.7042 53.624 52.4322 53.392C52.1602 53.16 51.8282 53.044 51.4362 53.044Z" fill="#ADAFAE"/>
<path d="M33 38.81C32.31 38.81 31.66 38.46 31.2 37.85L29.7 35.85C29.6423 35.8011 29.5737 35.7668 29.5 35.75H29C24.83 35.75 22.25 34.62 22.25 29V24C22.25 19.58 24.58 17.25 29 17.25H37C41.42 17.25 43.75 19.58 43.75 24V29C43.75 33.42 41.42 35.75 37 35.75H36.5C36.42 35.75 36.35 35.79 36.3 35.85L34.8 37.85C34.34 38.46 33.69 38.81 33 38.81ZM29 18.75C25.42 18.75 23.75 20.42 23.75 24V29C23.75 33.52 25.3 34.25 29 34.25H29.5C30.01 34.25 30.59 34.54 30.9 34.95L32.4 36.95C32.75 37.41 33.25 37.41 33.6 36.95L35.1 34.95C35.43 34.51 35.95 34.25 36.5 34.25H37C40.58 34.25 42.25 32.58 42.25 29V24C42.25 20.42 40.58 18.75 37 18.75H29Z" fill="#101010"/>
<path d="M33 28C32.44 28 32 27.55 32 27C32 26.45 32.45 26 33 26C33.55 26 34 26.45 34 27C34 27.55 33.56 28 33 28ZM37 28C36.44 28 36 27.55 36 27C36 26.45 36.45 26 37 26C37.55 26 38 26.45 38 27C38 27.55 37.56 28 37 28ZM29 28C28.44 28 28 27.55 28 27C28 26.45 28.45 26 29 26C29.55 26 30 26.45 30 27C30 27.55 29.56 28 29 28Z" fill="#ADAFAE"/>
</svg>
