<svg width="124" height="20" viewBox="0 0 124 20" fill="none" xmlns="http://www.w3.org/2000/svg">
<path d="M5.27246 3.46094V5.49121H4.21289V3.46094H5.27246ZM5.14258 14.624V16.4561H4.08984V14.624H5.14258ZM6.03125 12.3955C6.03125 12.1357 5.98112 11.9102 5.88086 11.7188C5.78516 11.5273 5.62337 11.3564 5.39551 11.2061C5.1722 11.0557 4.87142 10.9121 4.49316 10.7754C3.90527 10.5612 3.3903 10.3265 2.94824 10.0713C2.50618 9.81152 2.16211 9.49023 1.91602 9.10742C1.67448 8.72461 1.55371 8.24154 1.55371 7.6582C1.55371 7.09766 1.68359 6.6123 1.94336 6.20215C2.20768 5.78743 2.57454 5.46842 3.04395 5.24512C3.51335 5.01725 4.05794 4.90332 4.67773 4.90332C5.16081 4.90332 5.59375 4.97624 5.97656 5.12207C6.36393 5.26335 6.69434 5.4707 6.96777 5.74414C7.24577 6.01758 7.45768 6.35482 7.60352 6.75586C7.75391 7.15234 7.8291 7.60579 7.8291 8.11621H6.02441C6.02441 7.83366 5.99251 7.58301 5.92871 7.36426C5.86491 7.14551 5.77376 6.96094 5.65527 6.81055C5.53678 6.6556 5.39323 6.53939 5.22461 6.46191C5.06055 6.38444 4.8737 6.3457 4.66406 6.3457C4.36328 6.3457 4.11491 6.40267 3.91895 6.5166C3.72754 6.63053 3.58626 6.78548 3.49512 6.98145C3.40853 7.17741 3.36523 7.40299 3.36523 7.6582C3.36523 7.9043 3.41081 8.12077 3.50195 8.30762C3.59766 8.48991 3.75716 8.65625 3.98047 8.80664C4.20833 8.95703 4.52051 9.1097 4.91699 9.26465C5.50944 9.4834 6.02441 9.72493 6.46191 9.98926C6.89941 10.249 7.23893 10.568 7.48047 10.9463C7.72201 11.3245 7.84277 11.8031 7.84277 12.3818C7.84277 12.9743 7.70605 13.4756 7.43262 13.8857C7.16374 14.2959 6.78548 14.6081 6.29785 14.8223C5.81022 15.0365 5.24284 15.1436 4.5957 15.1436C4.18099 15.1436 3.77083 15.0889 3.36523 14.9795C2.95964 14.8701 2.59049 14.6924 2.25781 14.4463C1.92969 14.1956 1.66764 13.8652 1.47168 13.4551C1.27572 13.0404 1.17773 12.5322 1.17773 11.9307H2.98926C2.98926 12.277 3.03483 12.5641 3.12598 12.792C3.21712 13.0199 3.34017 13.2021 3.49512 13.3389C3.65007 13.471 3.82324 13.5645 4.01465 13.6191C4.20605 13.6738 4.39974 13.7012 4.5957 13.7012C4.91471 13.7012 5.17904 13.6465 5.38867 13.5371C5.60286 13.4277 5.76237 13.2751 5.86719 13.0791C5.97656 12.8786 6.03125 12.6507 6.03125 12.3955ZM19.6348 11.3701V12.792H12.4639L12.3887 11.6982L16.6064 5.04688H18.0488L16.4902 7.69238L14.2275 11.3701H19.6348ZM18.4521 5.04688V15H16.6406V5.04688H18.4521ZM22.5127 10.4199L21.0703 10.0713L21.624 5.04688H27.0996V6.54395H23.1211L22.8613 8.86816C23.0026 8.78158 23.2077 8.69499 23.4766 8.6084C23.75 8.51725 24.0576 8.47168 24.3994 8.47168C24.8734 8.47168 25.2972 8.54915 25.6709 8.7041C26.0446 8.85449 26.3613 9.07324 26.6211 9.36035C26.8854 9.64746 27.0837 9.99837 27.2158 10.4131C27.3525 10.8232 27.4209 11.2881 27.4209 11.8076C27.4209 12.2633 27.3525 12.6917 27.2158 13.0928C27.0837 13.4893 26.8809 13.8424 26.6074 14.1523C26.334 14.4577 25.9899 14.6992 25.5752 14.877C25.1605 15.0501 24.6729 15.1367 24.1123 15.1367C23.6885 15.1367 23.2806 15.0752 22.8887 14.9521C22.5013 14.8245 22.1527 14.64 21.8428 14.3984C21.5329 14.1523 21.2845 13.8516 21.0977 13.4961C20.9154 13.1406 20.8151 12.7327 20.7969 12.2725H22.5811C22.613 12.5778 22.695 12.8376 22.8271 13.0518C22.9593 13.266 23.1325 13.43 23.3467 13.5439C23.5654 13.6579 23.8184 13.7148 24.1055 13.7148C24.3652 13.7148 24.5885 13.667 24.7754 13.5713C24.9668 13.471 25.124 13.332 25.2471 13.1543C25.3701 12.9766 25.4613 12.7669 25.5205 12.5254C25.5798 12.2839 25.6094 12.0195 25.6094 11.7324C25.6094 11.4544 25.5752 11.2015 25.5068 10.9736C25.4385 10.7412 25.3337 10.5407 25.1924 10.3721C25.0511 10.2035 24.8734 10.0736 24.6592 9.98242C24.4495 9.89128 24.2035 9.8457 23.9209 9.8457C23.5426 9.8457 23.251 9.90267 23.0459 10.0166C22.8454 10.1305 22.6676 10.265 22.5127 10.4199ZM33.7441 4.96484H33.9902V6.4209H33.874C33.3226 6.4209 32.8372 6.50521 32.418 6.67383C32.0033 6.84245 31.6569 7.07943 31.3789 7.38477C31.1055 7.68555 30.8981 8.04329 30.7568 8.45801C30.6156 8.86816 30.5449 9.31706 30.5449 9.80469V11.418C30.5449 11.7962 30.5837 12.1289 30.6611 12.416C30.7432 12.6986 30.8548 12.9378 30.9961 13.1338C31.1419 13.3252 31.3105 13.4688 31.502 13.5645C31.6979 13.6602 31.9121 13.708 32.1445 13.708C32.377 13.708 32.5866 13.6602 32.7734 13.5645C32.9603 13.4688 33.1198 13.3343 33.252 13.1611C33.3887 12.9834 33.4912 12.776 33.5596 12.5391C33.6325 12.3021 33.6689 12.0423 33.6689 11.7598C33.6689 11.4818 33.6348 11.2243 33.5664 10.9873C33.498 10.7503 33.3978 10.543 33.2656 10.3652C33.1335 10.1829 32.9694 10.0439 32.7734 9.94824C32.582 9.84798 32.3633 9.79785 32.1172 9.79785C31.7982 9.79785 31.5133 9.87305 31.2627 10.0234C31.012 10.1693 30.8138 10.3607 30.668 10.5977C30.5221 10.8346 30.4424 11.0853 30.4287 11.3496L29.8203 11.0488C29.8431 10.6615 29.9251 10.306 30.0664 9.98242C30.2122 9.65885 30.4059 9.3763 30.6475 9.13477C30.8936 8.89323 31.1829 8.70638 31.5156 8.57422C31.8529 8.44206 32.2266 8.37598 32.6367 8.37598C33.1107 8.37598 33.5254 8.46712 33.8809 8.64941C34.2363 8.82715 34.5303 9.07096 34.7627 9.38086C34.9997 9.69076 35.1774 10.0485 35.2959 10.4541C35.4144 10.8551 35.4736 11.279 35.4736 11.7256C35.4736 12.2041 35.3962 12.6507 35.2412 13.0654C35.0908 13.4801 34.8721 13.8424 34.585 14.1523C34.2979 14.4622 33.9515 14.7038 33.5459 14.877C33.1403 15.0501 32.6846 15.1367 32.1787 15.1367C31.6455 15.1367 31.167 15.0365 30.7432 14.8359C30.3239 14.6354 29.9639 14.3574 29.6631 14.002C29.3623 13.6465 29.1322 13.2318 28.9727 12.7578C28.8132 12.2839 28.7334 11.7712 28.7334 11.2197V10.4951C28.7334 9.71582 28.8405 8.99121 29.0547 8.32129C29.2689 7.65137 29.5856 7.06576 30.0049 6.56445C30.4287 6.05859 30.9528 5.66667 31.5771 5.38867C32.2015 5.10612 32.9238 4.96484 33.7441 4.96484Z" fill="#101010"/>
<path d="M41.8731 13.964L43.9971 6.188H44.8251L42.7131 13.964H41.8731ZM51.9638 8.264C52.5718 8.264 53.0478 8.416 53.3918 8.72C53.7358 9.024 53.9078 9.444 53.9078 9.98V14H53.1038V9.98C53.1038 9.628 52.9798 9.356 52.7318 9.164C52.4838 8.964 52.1638 8.864 51.7718 8.864C51.3798 8.864 51.0598 8.964 50.8118 9.164C50.5638 9.356 50.4398 9.628 50.4398 9.98V14H49.5998V8.3H50.4398V8.936C50.7758 8.488 51.2838 8.264 51.9638 8.264ZM56.5081 7.364C56.3241 7.364 56.1681 7.3 56.0401 7.172C55.9201 7.044 55.8601 6.888 55.8601 6.704C55.8601 6.528 55.9201 6.38 56.0401 6.26C56.1681 6.14 56.3241 6.08 56.5081 6.08C56.6841 6.08 56.8361 6.14 56.9641 6.26C57.0921 6.38 57.1561 6.528 57.1561 6.704C57.1561 6.888 57.0921 7.044 56.9641 7.172C56.8361 7.3 56.6841 7.364 56.5081 7.364ZM56.0761 14V8.3H56.9041V14H56.0761ZM62.3842 8.3H63.2242V13.892C63.2242 14.38 63.1362 14.796 62.9602 15.14C62.7922 15.484 62.5522 15.744 62.2402 15.92C61.9282 16.096 61.5802 16.212 61.1962 16.268C60.8202 16.332 60.4002 16.344 59.9362 16.304L59.9602 15.572C60.7202 15.644 61.3122 15.544 61.7362 15.272C62.1682 15.008 62.3842 14.552 62.3842 13.904V13.412C62.0482 13.86 61.5402 14.084 60.8602 14.084C60.2522 14.084 59.7762 13.932 59.4322 13.628C59.0882 13.324 58.9162 12.904 58.9162 12.368V9.992C58.9162 9.456 59.0882 9.036 59.4322 8.732C59.7762 8.42 60.2482 8.264 60.8482 8.264C61.5362 8.264 62.0482 8.492 62.3842 8.948V8.3ZM60.0922 13.196C60.3402 13.388 60.6602 13.484 61.0522 13.484C61.4442 13.484 61.7642 13.388 62.0122 13.196C62.2602 12.996 62.3842 12.72 62.3842 12.368V9.992C62.3842 9.632 62.2602 9.356 62.0122 9.164C61.7722 8.972 61.4522 8.876 61.0522 8.876C60.6602 8.876 60.3402 8.972 60.0922 9.164C59.8442 9.356 59.7202 9.632 59.7202 9.992V12.368C59.7202 12.72 59.8442 12.996 60.0922 13.196ZM67.2688 8.264C67.8768 8.264 68.3528 8.416 68.6968 8.72C69.0408 9.024 69.2128 9.444 69.2128 9.98V14H68.4088V9.98C68.4088 9.628 68.2848 9.356 68.0368 9.164C67.7888 8.964 67.4688 8.864 67.0768 8.864C66.6848 8.864 66.3648 8.964 66.1168 9.164C65.8688 9.356 65.7448 9.628 65.7448 9.98V14H64.9168V6.188H65.7448V8.96C66.0808 8.496 66.5888 8.264 67.2688 8.264ZM73.5768 9.056H72.1728V12.32C72.1728 12.656 72.2488 12.904 72.4008 13.064C72.5528 13.216 72.8008 13.292 73.1448 13.292H73.5408V14C73.4128 14.008 73.2328 14.012 73.0008 14.012C72.4408 14.012 72.0288 13.908 71.7648 13.7C71.5088 13.492 71.3768 13.132 71.3688 12.62V9.056H70.5288V8.432H71.3688V6.92H72.1728V8.432H73.5768V9.056Z" fill="#101010"/>
<path d="M88.8555 4.58594V6.37305H87.9766V4.58594H88.8555ZM88.75 14.1543V15.7188H87.877V14.1543H88.75ZM89.9219 12.3027C89.9219 12.0684 89.8691 11.8574 89.7637 11.6699C89.6582 11.4824 89.4844 11.3105 89.2422 11.1543C89 10.998 88.6758 10.8535 88.2695 10.7207C87.7773 10.5684 87.3516 10.3828 86.9922 10.1641C86.6367 9.94531 86.3613 9.67383 86.166 9.34961C85.9746 9.02539 85.8789 8.63281 85.8789 8.17188C85.8789 7.69141 85.9824 7.27734 86.1895 6.92969C86.3965 6.58203 86.6895 6.31445 87.0684 6.12695C87.4473 5.93945 87.8926 5.8457 88.4043 5.8457C88.8027 5.8457 89.1582 5.90625 89.4707 6.02734C89.7832 6.14453 90.0469 6.32031 90.2617 6.55469C90.4805 6.78906 90.6465 7.07617 90.7598 7.41602C90.877 7.75586 90.9355 8.14844 90.9355 8.59375H89.8574C89.8574 8.33203 89.8262 8.0918 89.7637 7.87305C89.7012 7.6543 89.6074 7.46484 89.4824 7.30469C89.3574 7.14062 89.2051 7.01562 89.0254 6.92969C88.8457 6.83984 88.6387 6.79492 88.4043 6.79492C88.0762 6.79492 87.8047 6.85156 87.5898 6.96484C87.3789 7.07812 87.2227 7.23828 87.1211 7.44531C87.0195 7.64844 86.9688 7.88477 86.9688 8.1543C86.9688 8.4043 87.0195 8.62305 87.1211 8.81055C87.2227 8.99805 87.3945 9.16797 87.6367 9.32031C87.8828 9.46875 88.2207 9.61523 88.6504 9.75977C89.1543 9.91992 89.582 10.1094 89.9336 10.3281C90.2852 10.543 90.5527 10.8086 90.7363 11.125C90.9199 11.4375 91.0117 11.8262 91.0117 12.291C91.0117 12.7949 90.8984 13.2207 90.6719 13.5684C90.4453 13.9121 90.127 14.1738 89.7168 14.3535C89.3066 14.5332 88.8262 14.623 88.2754 14.623C87.9434 14.623 87.6152 14.5781 87.291 14.4883C86.9668 14.3984 86.6738 14.252 86.4121 14.0488C86.1504 13.8418 85.9414 13.5703 85.7852 13.2344C85.6289 12.8945 85.5508 12.4785 85.5508 11.9863H86.6406C86.6406 12.3184 86.6875 12.5938 86.7812 12.8125C86.8789 13.0273 87.0078 13.1992 87.168 13.3281C87.3281 13.4531 87.5039 13.543 87.6953 13.5977C87.8906 13.6484 88.084 13.6738 88.2754 13.6738C88.627 13.6738 88.9238 13.6191 89.166 13.5098C89.4121 13.3965 89.5996 13.2363 89.7285 13.0293C89.8574 12.8223 89.9219 12.5801 89.9219 12.3027ZM98.9043 5.92188V14.5H97.8203V7.27539L95.6348 8.07227V7.09375L98.7344 5.92188H98.9043ZM103.193 13.2109V14.084C103.193 14.4395 103.104 14.8145 102.924 15.209C102.744 15.6074 102.492 15.9395 102.168 16.2051L101.553 15.7773C101.678 15.6055 101.783 15.4297 101.869 15.25C101.955 15.0742 102.02 14.8906 102.062 14.6992C102.109 14.5117 102.133 14.3125 102.133 14.1016V13.2109H103.193ZM110.225 11.6289V12.5195H104.061V11.8809L107.881 5.96875H108.766L107.816 7.67969L105.291 11.6289H110.225ZM109.035 5.96875V14.5H107.951V5.96875H109.035ZM112.58 10.4395L111.713 10.2168L112.141 5.96875H116.518V6.9707H113.061L112.803 9.29102C112.959 9.20117 113.156 9.11719 113.395 9.03906C113.637 8.96094 113.914 8.92188 114.227 8.92188C114.621 8.92188 114.975 8.99023 115.287 9.12695C115.6 9.25977 115.865 9.45117 116.084 9.70117C116.307 9.95117 116.477 10.252 116.594 10.6035C116.711 10.9551 116.77 11.3477 116.77 11.7812C116.77 12.1914 116.713 12.5684 116.6 12.9121C116.49 13.2559 116.324 13.5566 116.102 13.8145C115.879 14.0684 115.598 14.2656 115.258 14.4062C114.922 14.5469 114.525 14.6172 114.068 14.6172C113.725 14.6172 113.398 14.5703 113.09 14.4766C112.785 14.3789 112.512 14.2324 112.27 14.0371C112.031 13.8379 111.836 13.5918 111.684 13.2988C111.535 13.002 111.441 12.6543 111.402 12.2559H112.434C112.48 12.5762 112.574 12.8457 112.715 13.0645C112.855 13.2832 113.039 13.4492 113.266 13.5625C113.496 13.6719 113.764 13.7266 114.068 13.7266C114.326 13.7266 114.555 13.6816 114.754 13.5918C114.953 13.502 115.121 13.373 115.258 13.2051C115.395 13.0371 115.498 12.834 115.568 12.5957C115.643 12.3574 115.68 12.0898 115.68 11.793C115.68 11.5234 115.643 11.2734 115.568 11.043C115.494 10.8125 115.383 10.6113 115.234 10.4395C115.09 10.2676 114.912 10.1348 114.701 10.041C114.49 9.94336 114.248 9.89453 113.975 9.89453C113.611 9.89453 113.336 9.94336 113.148 10.041C112.965 10.1387 112.775 10.2715 112.58 10.4395ZM122.119 5.95703H122.213V6.87695H122.119C121.545 6.87695 121.064 6.9707 120.678 7.1582C120.291 7.3418 119.984 7.58984 119.758 7.90234C119.531 8.21094 119.367 8.55859 119.266 8.94531C119.168 9.33203 119.119 9.72461 119.119 10.123V11.377C119.119 11.7559 119.164 12.0918 119.254 12.3848C119.344 12.6738 119.467 12.918 119.623 13.1172C119.779 13.3164 119.955 13.4668 120.15 13.5684C120.35 13.6699 120.557 13.7207 120.771 13.7207C121.021 13.7207 121.244 13.6738 121.439 13.5801C121.635 13.4824 121.799 13.3477 121.932 13.1758C122.068 13 122.172 12.793 122.242 12.5547C122.312 12.3164 122.348 12.0547 122.348 11.7695C122.348 11.5156 122.316 11.2715 122.254 11.0371C122.191 10.7988 122.096 10.5879 121.967 10.4043C121.838 10.2168 121.676 10.0703 121.48 9.96484C121.289 9.85547 121.061 9.80078 120.795 9.80078C120.494 9.80078 120.213 9.875 119.951 10.0234C119.693 10.168 119.48 10.3594 119.312 10.5977C119.148 10.832 119.055 11.0879 119.031 11.3652L118.457 11.3594C118.512 10.9219 118.613 10.5488 118.762 10.2402C118.914 9.92773 119.102 9.67383 119.324 9.47852C119.551 9.2793 119.803 9.13477 120.08 9.04492C120.361 8.95117 120.658 8.9043 120.971 8.9043C121.396 8.9043 121.764 8.98438 122.072 9.14453C122.381 9.30469 122.635 9.51953 122.834 9.78906C123.033 10.0547 123.18 10.3555 123.273 10.6914C123.371 11.0234 123.42 11.3652 123.42 11.7168C123.42 12.1191 123.363 12.4961 123.25 12.8477C123.137 13.1992 122.967 13.5078 122.74 13.7734C122.518 14.0391 122.242 14.2461 121.914 14.3945C121.586 14.543 121.205 14.6172 120.771 14.6172C120.311 14.6172 119.908 14.5234 119.564 14.3359C119.221 14.1445 118.936 13.8906 118.709 13.5742C118.482 13.2578 118.312 12.9062 118.199 12.5195C118.086 12.1328 118.029 11.7402 118.029 11.3418V10.832C118.029 10.2305 118.09 9.64062 118.211 9.0625C118.332 8.48438 118.541 7.96094 118.838 7.49219C119.139 7.02344 119.555 6.65039 120.086 6.37305C120.617 6.0957 121.295 5.95703 122.119 5.95703Z" fill="#FF4332"/>
<path d="M84.9062 11.5H123.994V12.0977H84.9062V11.5Z" fill="#FF4332"/>
</svg>
