<svg width="66" height="20" viewBox="0 0 66 20" fill="none" xmlns="http://www.w3.org/2000/svg">
<path d="M6.59847 6.896H2.50647V9.692H5.48247V10.412H2.50647V14H1.67847V6.188H6.59847V6.896ZM10.2074 8.336C10.4874 8.336 10.7234 8.388 10.9154 8.492L10.7354 9.296C10.5754 9.192 10.3474 9.152 10.0514 9.176C9.69138 9.192 9.37938 9.34 9.11538 9.62C8.85938 9.892 8.72738 10.236 8.71938 10.652V14H7.89138V8.3H8.71938V9.536C9.05538 8.736 9.55138 8.336 10.2074 8.336ZM14.1524 14.084C13.4964 14.084 12.9564 13.912 12.5324 13.568C12.1164 13.216 11.9084 12.768 11.9084 12.224V10.112C11.9084 9.592 12.1244 9.156 12.5564 8.804C12.9884 8.444 13.5204 8.264 14.1524 8.264C14.7844 8.264 15.3164 8.444 15.7484 8.804C16.1804 9.156 16.3964 9.592 16.3964 10.112V12.224C16.3964 12.768 16.1884 13.216 15.7724 13.568C15.3564 13.912 14.8164 14.084 14.1524 14.084ZM14.1524 13.424C14.6084 13.424 14.9604 13.308 15.2084 13.076C15.4644 12.844 15.5924 12.544 15.5924 12.176V10.172C15.5924 9.82 15.4564 9.528 15.1844 9.296C14.9204 9.056 14.5764 8.936 14.1524 8.936C13.7364 8.936 13.3924 9.056 13.1204 9.296C12.8484 9.536 12.7124 9.828 12.7124 10.172V12.176C12.7124 12.544 12.8404 12.844 13.0964 13.076C13.3524 13.308 13.7044 13.424 14.1524 13.424ZM24.0802 8.264C24.6882 8.264 25.1642 8.416 25.5082 8.72C25.8522 9.024 26.0242 9.444 26.0242 9.98V14H25.2202V9.98C25.2202 9.628 25.0962 9.356 24.8482 9.164C24.6002 8.964 24.2802 8.864 23.8882 8.864C23.4962 8.864 23.1762 8.964 22.9282 9.164C22.6802 9.356 22.5562 9.628 22.5562 9.98V14H21.7522V9.98C21.7522 9.628 21.6282 9.356 21.3802 9.164C21.1322 8.964 20.8122 8.864 20.4202 8.864C20.0282 8.864 19.7082 8.964 19.4602 9.164C19.2122 9.356 19.0882 9.628 19.0882 9.98V14H18.2482V8.3H19.0882V8.936C19.4242 8.488 19.9322 8.264 20.6122 8.264C21.5082 8.264 22.1042 8.576 22.4002 9.2C22.5442 8.904 22.7642 8.676 23.0602 8.516C23.3562 8.348 23.6962 8.264 24.0802 8.264ZM30.3965 13.964L32.5205 6.188H33.3485L31.2365 13.964H30.3965Z" fill="#101010"/>
<path d="M43.2705 3.46094V5.49121H42.2109V3.46094H43.2705ZM43.1406 14.624V16.4561H42.0879V14.624H43.1406ZM44.0293 12.3955C44.0293 12.1357 43.9792 11.9102 43.8789 11.7188C43.7832 11.5273 43.6214 11.3564 43.3936 11.2061C43.1702 11.0557 42.8695 10.9121 42.4912 10.7754C41.9033 10.5612 41.3883 10.3265 40.9463 10.0713C40.5042 9.81152 40.1602 9.49023 39.9141 9.10742C39.6725 8.72461 39.5518 8.24154 39.5518 7.6582C39.5518 7.09766 39.6816 6.6123 39.9414 6.20215C40.2057 5.78743 40.5726 5.46842 41.042 5.24512C41.5114 5.01725 42.056 4.90332 42.6758 4.90332C43.1589 4.90332 43.5918 4.97624 43.9746 5.12207C44.362 5.26335 44.6924 5.4707 44.9658 5.74414C45.2438 6.01758 45.4557 6.35482 45.6016 6.75586C45.752 7.15234 45.8271 7.60579 45.8271 8.11621H44.0225C44.0225 7.83366 43.9906 7.58301 43.9268 7.36426C43.863 7.14551 43.7718 6.96094 43.6533 6.81055C43.5348 6.6556 43.3913 6.53939 43.2227 6.46191C43.0586 6.38444 42.8717 6.3457 42.6621 6.3457C42.3613 6.3457 42.113 6.40267 41.917 6.5166C41.7256 6.63053 41.5843 6.78548 41.4932 6.98145C41.4066 7.17741 41.3633 7.40299 41.3633 7.6582C41.3633 7.9043 41.4089 8.12077 41.5 8.30762C41.5957 8.48991 41.7552 8.65625 41.9785 8.80664C42.2064 8.95703 42.5186 9.1097 42.915 9.26465C43.5075 9.4834 44.0225 9.72493 44.46 9.98926C44.8975 10.249 45.237 10.568 45.4785 10.9463C45.7201 11.3245 45.8408 11.8031 45.8408 12.3818C45.8408 12.9743 45.7041 13.4756 45.4307 13.8857C45.1618 14.2959 44.7835 14.6081 44.2959 14.8223C43.8083 15.0365 43.2409 15.1436 42.5938 15.1436C42.179 15.1436 41.7689 15.0889 41.3633 14.9795C40.9577 14.8701 40.5885 14.6924 40.2559 14.4463C39.9277 14.1956 39.6657 13.8652 39.4697 13.4551C39.2738 13.0404 39.1758 12.5322 39.1758 11.9307H40.9873C40.9873 12.277 41.0329 12.5641 41.124 12.792C41.2152 13.0199 41.3382 13.2021 41.4932 13.3389C41.6481 13.471 41.8213 13.5645 42.0127 13.6191C42.2041 13.6738 42.3978 13.7012 42.5938 13.7012C42.9128 13.7012 43.1771 13.6465 43.3867 13.5371C43.6009 13.4277 43.7604 13.2751 43.8652 13.0791C43.9746 12.8786 44.0293 12.6507 44.0293 12.3955ZM55.3701 5.01953V15H53.5586V7.13184L51.1592 7.9248V6.46191L55.165 5.01953H55.3701ZM65.3096 9.16895V10.8438C65.3096 11.6094 65.2321 12.2633 65.0771 12.8057C64.9222 13.348 64.6989 13.7923 64.4072 14.1387C64.1156 14.4805 63.7669 14.7334 63.3613 14.8975C62.9557 15.057 62.5046 15.1367 62.0078 15.1367C61.6113 15.1367 61.2422 15.0866 60.9004 14.9863C60.5586 14.8815 60.251 14.722 59.9775 14.5078C59.7087 14.2891 59.4762 14.0111 59.2803 13.6738C59.0889 13.3366 58.9408 12.9333 58.8359 12.4639C58.7357 11.9945 58.6855 11.4544 58.6855 10.8438V9.16895C58.6855 8.40332 58.763 7.75163 58.918 7.21387C59.0775 6.67611 59.3031 6.23633 59.5947 5.89453C59.8864 5.55273 60.235 5.30436 60.6406 5.14941C61.0462 4.98991 61.4974 4.91016 61.9941 4.91016C62.3952 4.91016 62.7643 4.96029 63.1016 5.06055C63.4434 5.16081 63.7487 5.31803 64.0176 5.53223C64.291 5.74186 64.5234 6.0153 64.7148 6.35254C64.9062 6.68522 65.0521 7.08626 65.1523 7.55566C65.2572 8.02051 65.3096 8.55827 65.3096 9.16895ZM63.5049 11.0898V8.91602C63.5049 8.5332 63.4821 8.20052 63.4365 7.91797C63.3955 7.63086 63.334 7.38704 63.252 7.18652C63.1699 6.986 63.0674 6.82422 62.9443 6.70117C62.8213 6.57357 62.68 6.48014 62.5205 6.4209C62.361 6.36165 62.1855 6.33203 61.9941 6.33203C61.7572 6.33203 61.5452 6.37988 61.3584 6.47559C61.1715 6.56673 61.0143 6.71257 60.8867 6.91309C60.7591 7.11361 60.6611 7.38021 60.5928 7.71289C60.529 8.04102 60.4971 8.44206 60.4971 8.91602V11.0898C60.4971 11.4727 60.5176 11.8076 60.5586 12.0947C60.6042 12.3818 60.668 12.6279 60.75 12.833C60.8366 13.0381 60.9391 13.2067 61.0576 13.3389C61.1807 13.4665 61.3219 13.5622 61.4814 13.626C61.641 13.6852 61.8164 13.7148 62.0078 13.7148C62.2493 13.7148 62.4613 13.667 62.6436 13.5713C62.8304 13.4756 62.9876 13.3252 63.1152 13.1201C63.2428 12.9105 63.3385 12.6393 63.4023 12.3066C63.4707 11.9694 63.5049 11.5638 63.5049 11.0898Z" fill="#101010"/>
</svg>
