<svg width="67" height="84" viewBox="0 0 67 84" fill="none" xmlns="http://www.w3.org/2000/svg">
<path d="M20.2012 50.08C20.8972 50.08 21.4532 50.292 21.8692 50.716C22.2932 51.132 22.5052 51.684 22.5052 52.372C22.5052 53.052 22.2892 53.596 21.8572 54.004C21.4332 54.412 20.8652 54.616 20.1532 54.616H18.1132V58H17.0452V50.08H20.2012ZM20.0452 53.764C20.4612 53.764 20.7972 53.64 21.0532 53.392C21.3172 53.136 21.4492 52.804 21.4492 52.396C21.4492 51.98 21.3212 51.644 21.0652 51.388C20.8092 51.132 20.4692 51.004 20.0452 51.004H18.1132V53.764H20.0452ZM26.1743 52.24C26.4703 52.24 26.7063 52.3 26.8823 52.42L26.6903 53.428C26.5223 53.324 26.2783 53.288 25.9583 53.32C25.6303 53.336 25.3423 53.472 25.0943 53.728C24.8543 53.976 24.7303 54.292 24.7223 54.676V58H23.6543V52.216H24.7223V53.404C25.0583 52.628 25.5423 52.24 26.1743 52.24ZM31.7939 57.544C31.3619 57.912 30.8019 58.096 30.1139 58.096C29.4259 58.096 28.8619 57.912 28.4219 57.544C27.9819 57.168 27.7619 56.7 27.7619 56.14V54.1C27.7619 53.556 27.9859 53.1 28.4339 52.732C28.8899 52.356 29.4499 52.168 30.1139 52.168C30.7779 52.168 31.3339 52.352 31.7819 52.72C32.2299 53.088 32.4539 53.548 32.4539 54.1V56.14C32.4539 56.708 32.2339 57.176 31.7939 57.544ZM29.1299 56.92C29.3699 57.136 29.6979 57.244 30.1139 57.244C30.5299 57.244 30.8539 57.136 31.0859 56.92C31.3179 56.704 31.4339 56.424 31.4339 56.08V54.16C31.4339 53.848 31.3099 53.58 31.0619 53.356C30.8139 53.132 30.4979 53.02 30.1139 53.02C29.7299 53.02 29.4099 53.132 29.1539 53.356C28.9059 53.58 28.7819 53.848 28.7819 54.16V56.08C28.7819 56.416 28.8979 56.696 29.1299 56.92ZM36.3907 50.812C36.0387 50.82 35.7987 50.912 35.6707 51.088C35.5427 51.256 35.4787 51.52 35.4787 51.88V52.96H36.8587V53.764H35.4787V58H34.4107V53.764H33.5587V52.96H34.4107V51.796C34.4107 51.18 34.5587 50.736 34.8547 50.464C35.1507 50.192 35.6627 50.064 36.3907 50.08H36.8587V50.812H36.3907ZM39.3313 51.148C39.1953 51.292 39.0273 51.364 38.8273 51.364C38.6273 51.364 38.4553 51.292 38.3113 51.148C38.1673 51.004 38.0953 50.828 38.0953 50.62C38.0953 50.42 38.1633 50.252 38.2993 50.116C38.4433 49.98 38.6193 49.912 38.8273 49.912C39.0273 49.912 39.1953 49.98 39.3313 50.116C39.4753 50.252 39.5473 50.42 39.5473 50.62C39.5473 50.828 39.4753 51.004 39.3313 51.148ZM38.2633 58V52.216H39.3433V58H38.2633ZM42.3921 57.076H43.3161V58H41.3241V50.08H42.3921V57.076ZM49.0484 55.54L45.2924 55.552V55.948C45.2924 56.308 45.4244 56.604 45.6884 56.836C45.9604 57.068 46.2844 57.184 46.6604 57.184C46.9884 57.184 47.2804 57.1 47.5364 56.932C47.7924 56.764 47.9484 56.548 48.0044 56.284L48.9404 56.476C48.8524 56.94 48.5964 57.324 48.1724 57.628C47.7484 57.924 47.2444 58.072 46.6604 58.072C46.0364 58.072 45.4924 57.888 45.0284 57.52C44.5724 57.152 44.3444 56.64 44.3444 55.984V54.268C44.3444 53.652 44.5644 53.144 45.0044 52.744C45.4524 52.344 46.0004 52.144 46.6484 52.144C47.3284 52.144 47.8964 52.344 48.3524 52.744C48.8164 53.136 49.0484 53.644 49.0484 54.268V55.54ZM46.6484 53.044C46.2884 53.044 45.9724 53.164 45.7004 53.404C45.4284 53.636 45.2924 53.936 45.2924 54.304V54.772L48.0524 54.76V54.304C48.0524 53.928 47.9164 53.624 47.6444 53.392C47.3724 53.16 47.0404 53.044 46.6484 53.044Z" fill="#ADAFAE"/>
<path d="M33.34 28.75C30.17 28.75 27.59 26.17 27.59 23C27.59 19.83 30.17 17.25 33.34 17.25C36.51 17.25 39.09 19.83 39.09 23C39.09 26.17 36.51 28.75 33.34 28.75ZM33.34 18.75C32.2136 18.7526 31.1342 19.2013 30.3377 19.9977C29.5413 20.7942 29.0926 21.8736 29.09 23C29.0926 24.1264 29.5413 25.2058 30.3377 26.0023C31.1342 26.7987 32.2136 27.2474 33.34 27.25C34.4664 27.2474 35.5458 26.7987 36.3423 26.0023C37.1387 25.2058 37.5874 24.1264 37.59 23C37.5874 21.8736 37.1387 20.7942 36.3423 19.9977C35.5458 19.2013 34.4664 18.7526 33.34 18.75ZM41.93 38.75C41.52 38.75 41.18 38.41 41.18 38C41.18 34.55 37.66 31.75 33.34 31.75C29.02 31.75 25.5 34.55 25.5 38C25.5 38.41 25.16 38.75 24.75 38.75C24.34 38.75 24 38.41 24 38C24 33.73 28.19 30.25 33.34 30.25C38.49 30.25 42.68 33.73 42.68 38C42.68 38.41 42.34 38.75 41.93 38.75Z" fill="#101010"/>
<path d="M41.18 38C41.18 38.41 41.52 38.75 41.93 38.75C42.34 38.75 42.68 38.41 42.68 38C42.68 33.73 38.49 30.25 33.34 30.25C28.19 30.25 24 33.73 24 38C24 38.41 24.34 38.75 24.75 38.75C25.16 38.75 25.5 38.41 25.5 38C25.5 34.55 29.02 31.75 33.34 31.75C37.66 31.75 41.18 34.55 41.18 38Z" fill="#ADAFAE"/>
</svg>
