<svg width="66" height="84" viewBox="0 0 66 84" fill="none" xmlns="http://www.w3.org/2000/svg">
<path d="M10.6991 52.372C10.6991 52.948 10.5431 53.428 10.2311 53.812C9.91906 54.196 9.49106 54.444 8.94706 54.556L10.5911 58H9.45106L7.90306 54.616H6.30706V58H5.23906V50.08H8.39506C9.09106 50.08 9.64706 50.292 10.0631 50.716C10.4871 51.132 10.6991 51.684 10.6991 52.372ZM6.30706 51.004V53.764H8.23906C8.65506 53.764 8.99106 53.64 9.24706 53.392C9.51106 53.136 9.64306 52.804 9.64306 52.396C9.64306 51.98 9.51506 51.644 9.25906 51.388C9.00306 51.132 8.66306 51.004 8.23906 51.004H6.30706ZM16.3093 55.54L12.5533 55.552V55.948C12.5533 56.308 12.6853 56.604 12.9493 56.836C13.2213 57.068 13.5453 57.184 13.9213 57.184C14.2493 57.184 14.5413 57.1 14.7973 56.932C15.0533 56.764 15.2093 56.548 15.2653 56.284L16.2013 56.476C16.1133 56.94 15.8573 57.324 15.4333 57.628C15.0093 57.924 14.5053 58.072 13.9213 58.072C13.2973 58.072 12.7533 57.888 12.2893 57.52C11.8333 57.152 11.6053 56.64 11.6053 55.984V54.268C11.6053 53.652 11.8253 53.144 12.2653 52.744C12.7133 52.344 13.2613 52.144 13.9093 52.144C14.5893 52.144 15.1573 52.344 15.6133 52.744C16.0773 53.136 16.3093 53.644 16.3093 54.268V55.54ZM13.9093 53.044C13.5493 53.044 13.2333 53.164 12.9613 53.404C12.6893 53.636 12.5533 53.936 12.5533 54.304V54.772L15.3133 54.76V54.304C15.3133 53.928 15.1773 53.624 14.9053 53.392C14.6333 53.16 14.3013 53.044 13.9093 53.044ZM19.7455 58.048C19.0815 58.048 18.5415 57.892 18.1255 57.58C17.7095 57.26 17.5015 56.852 17.5015 56.356V56.212H18.4855V56.38C18.4855 56.628 18.6015 56.836 18.8335 57.004C19.0735 57.164 19.3735 57.244 19.7335 57.244C20.0775 57.244 20.3575 57.168 20.5735 57.016C20.7895 56.856 20.8975 56.652 20.8975 56.404C20.8975 56.204 20.8135 56.048 20.6455 55.936C20.4775 55.824 20.1895 55.712 19.7815 55.6C19.3735 55.488 19.0815 55.396 18.9055 55.324C18.4575 55.156 18.1095 54.964 17.8615 54.748C17.6215 54.532 17.5015 54.232 17.5015 53.848C17.5015 53.344 17.7015 52.94 18.1015 52.636C18.5015 52.332 19.0295 52.18 19.6855 52.18C20.3415 52.18 20.8735 52.336 21.2815 52.648C21.6895 52.96 21.8935 53.368 21.8935 53.872V53.98H20.8975V53.872C20.8975 53.624 20.7855 53.42 20.5615 53.26C20.3375 53.1 20.0495 53.02 19.6975 53.02C19.3535 53.02 19.0735 53.096 18.8575 53.248C18.6415 53.392 18.5335 53.584 18.5335 53.824C18.5335 53.944 18.5615 54.048 18.6175 54.136C18.6815 54.224 18.7815 54.3 18.9175 54.364C19.0615 54.428 19.1935 54.48 19.3135 54.52C19.4415 54.56 19.6175 54.612 19.8415 54.676C20.0735 54.74 20.2535 54.792 20.3815 54.832C20.8935 54.992 21.2855 55.188 21.5575 55.42C21.8375 55.644 21.9775 55.964 21.9775 56.38C21.9775 56.892 21.7735 57.3 21.3655 57.604C20.9575 57.9 20.4175 58.048 19.7455 58.048ZM27.9409 55.54L24.1849 55.552V55.948C24.1849 56.308 24.3169 56.604 24.5809 56.836C24.8529 57.068 25.1769 57.184 25.5529 57.184C25.8809 57.184 26.1729 57.1 26.4289 56.932C26.6849 56.764 26.8409 56.548 26.8969 56.284L27.8329 56.476C27.7449 56.94 27.4889 57.324 27.0649 57.628C26.6409 57.924 26.1369 58.072 25.5529 58.072C24.9289 58.072 24.3849 57.888 23.9209 57.52C23.4649 57.152 23.2369 56.64 23.2369 55.984V54.268C23.2369 53.652 23.4569 53.144 23.8969 52.744C24.3449 52.344 24.8929 52.144 25.5409 52.144C26.2209 52.144 26.7889 52.344 27.2449 52.744C27.7089 53.136 27.9409 53.644 27.9409 54.268V55.54ZM25.5409 53.044C25.1809 53.044 24.8649 53.164 24.5929 53.404C24.3209 53.636 24.1849 53.936 24.1849 54.304V54.772L26.9449 54.76V54.304C26.9449 53.928 26.8089 53.624 26.5369 53.392C26.2649 53.16 25.9329 53.044 25.5409 53.044ZM32.0325 52.24C32.3285 52.24 32.5645 52.3 32.7405 52.42L32.5485 53.428C32.3805 53.324 32.1365 53.288 31.8165 53.32C31.4885 53.336 31.2005 53.472 30.9525 53.728C30.7125 53.976 30.5885 54.292 30.5805 54.676V58H29.5125V52.216H30.5805V53.404C30.9165 52.628 31.4005 52.24 32.0325 52.24ZM34.7825 58L32.8745 52.216H34.0385L35.3585 56.788L36.6785 52.216H37.8305L35.9345 58H34.7825ZM40.8314 52.192C41.5194 52.192 42.0714 52.364 42.4874 52.708C42.9034 53.052 43.1114 53.512 43.1114 54.088V58H42.0434V57.076C41.7874 57.748 41.1994 58.084 40.2794 58.084C39.7274 58.084 39.2754 57.956 38.9234 57.7C38.5714 57.436 38.3954 57.04 38.3954 56.512C38.3954 55.968 38.5954 55.544 38.9954 55.24C39.4034 54.936 39.9754 54.784 40.7114 54.784H42.0434V54.244C42.0434 53.884 41.9394 53.608 41.7314 53.416C41.5234 53.216 41.2234 53.116 40.8314 53.116C40.4954 53.116 40.2194 53.188 40.0034 53.332C39.7954 53.468 39.6754 53.652 39.6434 53.884L38.5754 53.752C38.6154 53.296 38.8434 52.924 39.2594 52.636C39.6754 52.34 40.1994 52.192 40.8314 52.192ZM40.5794 57.328C40.9874 57.328 41.3314 57.232 41.6114 57.04C41.8994 56.84 42.0434 56.556 42.0434 56.188V55.348H40.9274C40.4714 55.348 40.1154 55.44 39.8594 55.624C39.6034 55.808 39.4754 56.064 39.4754 56.392C39.4754 56.68 39.5714 56.908 39.7634 57.076C39.9554 57.244 40.2274 57.328 40.5794 57.328ZM47.2673 53.14H45.8873V56.188C45.8873 56.5 45.9553 56.732 46.0913 56.884C46.2353 57.028 46.4633 57.1 46.7753 57.1H47.2073V58C46.9033 58.016 46.6913 58.024 46.5713 58.024C45.9793 58.024 45.5473 57.92 45.2753 57.712C45.0033 57.496 44.8673 57.12 44.8673 56.584V53.14H44.0153V52.336H44.8673V50.776H45.8873V52.336H47.2673V53.14ZM49.5588 51.148C49.4228 51.292 49.2548 51.364 49.0548 51.364C48.8548 51.364 48.6828 51.292 48.5388 51.148C48.3948 51.004 48.3228 50.828 48.3228 50.62C48.3228 50.42 48.3908 50.252 48.5268 50.116C48.6708 49.98 48.8468 49.912 49.0548 49.912C49.2548 49.912 49.4228 49.98 49.5588 50.116C49.7028 50.252 49.7748 50.42 49.7748 50.62C49.7748 50.828 49.7028 51.004 49.5588 51.148ZM48.4908 58V52.216H49.5708V58H48.4908ZM55.1909 57.544C54.7589 57.912 54.1989 58.096 53.5109 58.096C52.8229 58.096 52.2589 57.912 51.8189 57.544C51.3789 57.168 51.1589 56.7 51.1589 56.14V54.1C51.1589 53.556 51.3829 53.1 51.8309 52.732C52.2869 52.356 52.8469 52.168 53.5109 52.168C54.1749 52.168 54.7309 52.352 55.1789 52.72C55.6269 53.088 55.8509 53.548 55.8509 54.1V56.14C55.8509 56.708 55.6309 57.176 55.1909 57.544ZM52.5269 56.92C52.7669 57.136 53.0949 57.244 53.5109 57.244C53.9269 57.244 54.2509 57.136 54.4829 56.92C54.7149 56.704 54.8309 56.424 54.8309 56.08V54.16C54.8309 53.848 54.7069 53.58 54.4589 53.356C54.2109 53.132 53.8949 53.02 53.5109 53.02C53.1269 53.02 52.8069 53.132 52.5509 53.356C52.3029 53.58 52.1789 53.848 52.1789 54.16V56.08C52.1789 56.416 52.2949 56.696 52.5269 56.92ZM59.7997 52.168C60.4317 52.168 60.9157 52.328 61.2517 52.648C61.5957 52.968 61.7677 53.408 61.7677 53.968V58H60.7477V53.968C60.7477 53.648 60.6357 53.396 60.4117 53.212C60.1877 53.028 59.8957 52.936 59.5357 52.936C59.1757 52.936 58.8837 53.028 58.6597 53.212C58.4437 53.396 58.3357 53.648 58.3357 53.968V58H57.2677V52.216H58.3357V52.804C58.6717 52.38 59.1597 52.168 59.7997 52.168Z" fill="#ADAFAE"/>
<path d="M33 38.75C32.22 38.75 31.46 38.35 30.94 37.65L29.93 36.3C29.72 36.02 29.44 35.86 29.14 35.84C28.84 35.83 28.54 35.96 28.3 36.21L27.73 35.7L28.28 36.21C26.84 37.75 25.73 37.63 25.2 37.42C24.66 37.21 23.75 36.52 23.75 34.3V23.04C23.75 18.6 25.03 17.25 29.22 17.25H36.78C40.97 17.25 42.25 18.6 42.25 23.04V34.3C42.25 36.51 41.34 37.2 40.8 37.42C40.27 37.63 39.17 37.75 37.72 36.21C37.48 35.95 37.19 35.81 36.87 35.84C36.57 35.86 36.28 36.02 36.07 36.3L35.06 37.65C34.54 38.35 33.78 38.75 33 38.75ZM29.08 34.33H29.21C29.95 34.37 30.65 34.76 31.12 35.39L32.13 36.74C32.62 37.39 33.37 37.39 33.86 36.74L34.87 35.39C35.35 34.76 36.04 34.37 36.79 34.33C37.53 34.29 38.27 34.6 38.81 35.18C39.57 35.99 40.07 36.09 40.24 36.02C40.48 35.92 40.74 35.34 40.74 34.3V23.04C40.74 19.43 40.11 18.75 36.77 18.75H29.22C25.88 18.75 25.25 19.43 25.25 23.04V34.3C25.25 35.35 25.51 35.93 25.75 36.02C25.92 36.09 26.42 35.99 27.18 35.18C27.72 34.63 28.39 34.33 29.08 34.33Z" fill="#101010"/>
<path d="M37 24.75H29C28.59 24.75 28.25 24.41 28.25 24C28.25 23.59 28.59 23.25 29 23.25H37C37.41 23.25 37.75 23.59 37.75 24C37.75 24.41 37.41 24.75 37 24.75ZM36 28.75H30C29.59 28.75 29.25 28.41 29.25 28C29.25 27.59 29.59 27.25 30 27.25H36C36.41 27.25 36.75 27.59 36.75 28C36.75 28.41 36.41 28.75 36 28.75Z" fill="#ADAFAE"/>
</svg>
